<?xml version="1.0" encoding="UTF-8" standalone="no" ?>
<!DOCTYPE svg PUBLIC "-//W3C//DTD SVG 1.1//EN" "http://www.w3.org/Graphics/SVG/1.1/DTD/svg11.dtd">
<svg xmlns="http://www.w3.org/2000/svg" xmlns:xlink="http://www.w3.org/1999/xlink" version="1.1" width="100" height="100" viewBox="0 0 106 100" xml:space="preserve">
<desc>Created with Fabric.js 4.6.0</desc>
<defs>
</defs>
<g transform="matrix(1.57 0 0 1.42 53.96 9.61)" id="GiM8aC8b2X8CQE9AYjhY6"  >
<path style="stroke: rgb(85,124,179); stroke-width: 5; stroke-dasharray: none; stroke-linecap: butt; stroke-dashoffset: 0; stroke-linejoin: miter; stroke-miterlimit: 4; fill: none; fill-rule: nonzero; opacity: 1;" vector-effect="non-scaling-stroke"  transform=" translate(0, 0)" d="M 0 -4.03551 C 2.2276 -4.03551 4.03551 -2.2276000000000007 4.03551 0 C 4.03551 2.2276 2.2276000000000007 4.03551 0 4.03551 C -2.2276 4.03551 -4.03551 2.2276000000000007 -4.03551 0 C -4.03551 -2.2276 -2.2276000000000007 -4.03551 0 -4.03551 z" stroke-linecap="round" />
</g>
<g transform="matrix(3.12 0 0 4.5 52.03 54.12)" id="t-uP0AcYKfR7wnCMkJvm6"  >
<path style="stroke: rgb(85,124,179); stroke-width: 5; stroke-dasharray: none; stroke-linecap: butt; stroke-dashoffset: 0; stroke-linejoin: miter; stroke-miterlimit: 4; fill: rgb(255,255,255); fill-rule: nonzero; opacity: 1;" vector-effect="non-scaling-stroke"  transform=" translate(0, 0)" d="M -12.67047 6.36097 C -13.9598 5.44459 -12.67047 -0.8216400000000004 -12.67047 -0.8216400000000004 L -11.85885 -2.9709600000000003 L -10.395620000000001 -4.6904200000000005 L -8.932390000000002 -5.87255 L -7.164320000000002 -6.68883 L -5.030440000000002 -6.94721 L 5.716039999999998 -6.94721 C 6.069249999999998 -6.94721 6.420589999999998 -6.896 6.759099999999998 -6.79517 C 7.091549999999998 -6.696149999999999 7.315709999999998 -6.62502 7.750819999999998 -6.44666 C 8.406229999999999 -6.177989999999999 8.822629999999998 -5.988029999999999 8.822629999999998 -5.988029999999999 C 8.822629999999998 -5.988029999999999 9.476729999999998 -5.626479999999999 9.976379999999999 -5.302079999999999 C 10.47604 -4.977679999999999 10.452369999999998 -5.040609999999999 11.12468 -4.49982 C 11.797 -3.95903 11.73577 -3.8709999999999996 12.28448 -2.9709699999999994 C 12.51063 -2.6000299999999994 12.60359 -2.4224299999999994 12.66612 -2.2352999999999996 C 12.75531 -1.9683899999999996 12.766259999999999 -1.7253199999999995 12.87378 -1.2436099999999997 C 13.05668 -0.42417999999999967 13.01609 0.3067500000000003 13.01609 0.3067500000000003 C 13.01609 0.3067500000000003 13.527800000000001 5.7266900000000005 13.01609 6.36097 C 12.50438 6.99525 -11.38114 7.27735 -12.67047 6.36097 z" stroke-linecap="round" />
</g>
<g transform="matrix(2.02 0 0 1.83 53.91 19.77)" id="Tk9utTB4732PhSaqiWx-u"  >
<path style="stroke: rgb(85,124,179); stroke-width: 5; stroke-dasharray: none; stroke-linecap: butt; stroke-dashoffset: 0; stroke-linejoin: miter; stroke-miterlimit: 4; fill: rgb(255,255,255); fill-opacity: 0; fill-rule: nonzero; opacity: 1;" vector-effect="non-scaling-stroke"  transform=" translate(0, 0)" d="M 0.02268 -1.91544 C -0.07936000000000001 0.22742000000000018 0.02268 1.91545 0.02268 1.91545" stroke-linecap="round" />
</g>
<g transform="matrix(1.87 0 0 1.83 53.24 48.37)" id="NzT8oSQmcHIGDwdIW32mC"  >
<path style="stroke: rgb(85,124,179); stroke-width: 5; stroke-dasharray: none; stroke-linecap: butt; stroke-dashoffset: 0; stroke-linejoin: miter; stroke-miterlimit: 4; fill: rgb(85,124,179); fill-rule: nonzero; opacity: 1;" vector-effect="non-scaling-stroke"  transform=" translate(0, 0)" d="M -12.20916 -4.75541 C -11.41834 -5.526490000000001 -11.300030000000001 -5.55335 -10.335970000000001 -5.819330000000001 C -9.371910000000002 -6.085310000000001 0.9206499999999984 -5.819330000000001 0.9206499999999984 -5.819330000000001 C 0.9206499999999984 -5.819330000000001 9.590499999999999 -6.332700000000001 10.48036 -5.819330000000001 C 11.37022 -5.305960000000001 11.95995 -5.282730000000001 12.92934 -4.384110000000001 C 13.89873 -3.485480000000001 14.00077 -3.4459300000000006 14.35791 -1.4520300000000006 C 14.71505 0.5418699999999994 14.56049 2.5146799999999994 14.35791 3.591499999999999 C 14.155330000000001 4.66832 13.69265 4.9220299999999995 12.72326 5.534269999999999 C 11.75387 6.146509999999999 10.48036 6.04048 10.48036 6.04048 L -9.51964 6.04048 C -9.51964 6.04048 -11.32937 6.14652 -12.528350000000001 5.534269999999999 C -13.727330000000002 4.9220299999999995 -13.9074 5.045579999999999 -14.315560000000001 3.591499999999999 C -14.723720000000002 2.1374199999999988 -14.521640000000001 0.13009999999999922 -14.521640000000001 0.13009999999999922 L -13.49923 -2.735030000000001 C -13.49923 -2.735030000000001 -12.999970000000001 -3.984330000000001 -12.20916 -4.755410000000001 z" stroke-linecap="round" />
</g>
<g transform="matrix(2.24 0 0 4116.99 53.96 73.7)" id="rbdEKIYhXR34_kCQdAUx7"  >
<path style="stroke: rgb(85,124,179); stroke-width: 8; stroke-dasharray: none; stroke-linecap: round; stroke-dashoffset: 0; stroke-linejoin: round; stroke-miterlimit: 10; fill: none; fill-rule: nonzero; opacity: 1;" vector-effect="non-scaling-stroke"  transform=" translate(-202.57, -158.18)" d="M 197.45903345883224 158.180413697479 Q 197.46103345883225 158.180413697479 197.51658901438782 158.180413697479 Q 197.57214456994336 158.180413697479 197.68325568105445 158.180413697479 Q 197.79436679216556 158.180413697479 197.90547790327668 158.180413697479 Q 198.0165890143878 158.180413697479 198.1277001254989 158.180413697479 Q 198.23881123661002 158.180413697479 198.34992234772113 158.180413697479 Q 198.46103345883225 158.180413697479 198.57214456994336 158.180413697479 Q 198.68325568105445 158.180413697479 198.79436679216556 158.180413697479 Q 198.90547790327668 158.180413697479 198.96103345883222 158.180413697479 Q 199.0165890143878 158.180413697479 199.07214456994336 158.180413697479 Q 199.1277001254989 158.180413697479 199.23881123661002 158.180413697479 Q 199.34992234772113 158.180413697479 199.46103345883225 158.180413697479 Q 199.57214456994336 158.180413697479 199.6277001254989 158.180413697479 Q 199.68325568105445 158.180413697479 199.79436679216556 158.180413697479 Q 199.90547790327668 158.180413697479 200.0165890143878 158.180413697479 Q 200.1277001254989 158.180413697479 200.23881123661002 158.180413697479 Q 200.34992234772113 158.180413697479 200.46103345883225 158.180413697479 Q 200.57214456994336 158.180413697479 200.68325568105445 158.180413697479 Q 200.79436679216556 158.180413697479 200.90547790327668 158.180413697479 Q 201.0165890143878 158.180413697479 201.1277001254989 158.180413697479 Q 201.23881123661002 158.180413697479 201.2943667921656 158.180413697479 Q 201.34992234772113 158.180413697479 201.40547790327668 158.180413697479 Q 201.46103345883225 158.180413697479 201.51658901438782 158.180413697479 Q 201.57214456994336 158.180413697479 201.6277001254989 158.180413697479 Q 201.68325568105445 158.180413697479 201.73881123661 158.180413697479 Q 201.79436679216556 158.180413697479 201.90547790327668 158.180413697479 Q 202.0165890143878 158.180413697479 202.07214456994336 158.180413697479 Q 202.1277001254989 158.180413697479 202.18325568105445 158.180413697479 Q 202.23881123661002 158.180413697479 202.34992234772113 158.180413697479 Q 202.46103345883225 158.180413697479 202.51658901438782 158.180413697479 Q 202.57214456994336 158.180413697479 202.68325568105445 158.180413697479 Q 202.79436679216556 158.180413697479 202.84992234772113 158.180413697479 Q 202.90547790327668 158.180413697479 202.96103345883222 158.180413697479 Q 203.0165890143878 158.180413697479 203.07214456994336 158.180413697479 Q 203.1277001254989 158.180413697479 203.18325568105445 158.180413697479 Q 203.23881123661002 158.180413697479 203.2943667921656 158.180413697479 Q 203.34992234772113 158.180413697479 203.40547790327668 158.180413697479 Q 203.46103345883225 158.180413697479 203.51658901438782 158.180413697479 Q 203.57214456994336 158.180413697479 203.68325568105445 158.180413697479 Q 203.79436679216556 158.180413697479 203.90547790327668 158.180413697479 Q 204.0165890143878 158.180413697479 204.1277001254989 158.180413697479 Q 204.23881123661002 158.180413697479 204.34992234772113 158.180413697479 Q 204.46103345883225 158.180413697479 204.57214456994336 158.180413697479 Q 204.68325568105445 158.180413697479 204.79436679216556 158.180413697479 Q 204.90547790327668 158.180413697479 204.96103345883222 158.180413697479 Q 205.0165890143878 158.180413697479 205.1277001254989 158.180413697479 Q 205.23881123661002 158.180413697479 205.2943667921656 158.180413697479 Q 205.34992234772113 158.180413697479 205.40547790327668 158.180413697479 Q 205.46103345883225 158.180413697479 205.51658901438782 158.180413697479 Q 205.57214456994336 158.180413697479 205.68325568105445 158.180413697479 Q 205.79436679216556 158.180413697479 205.90547790327668 158.180413697479 Q 206.0165890143878 158.180413697479 206.1277001254989 158.180413697479 Q 206.23881123661002 158.180413697479 206.2943667921656 158.180413697479 Q 206.34992234772113 158.180413697479 206.46103345883225 158.180413697479 Q 206.57214456994336 158.180413697479 206.6277001254989 158.180413697479 Q 206.68325568105445 158.180413697479 206.73881123661 158.180413697479 Q 206.79436679216556 158.180413697479 206.84992234772113 158.180413697479 Q 206.90547790327668 158.180413697479 206.96103345883222 158.180413697479 Q 207.0165890143878 158.180413697479 207.07214456994336 158.180413697479 Q 207.1277001254989 158.180413697479 207.18325568105445 158.180413697479 Q 207.23881123661002 158.180413697479 207.2943667921656 158.180413697479 Q 207.34992234772113 158.180413697479 207.40547790327668 158.180413697479 Q 207.46103345883225 158.180413697479 207.57214456994336 158.180413697479 L 207.68525568105446 158.180413697479" stroke-linecap="round" />
</g>
<g transform="matrix(0.59 0 0 1.63 97.14 58.31)" id="A4xhc5CSfdR3rNRDcJJ2E"  >
<path style="stroke: rgb(85,124,179); stroke-width: 5; stroke-dasharray: none; stroke-linecap: butt; stroke-dashoffset: 0; stroke-linejoin: miter; stroke-miterlimit: 4; fill: rgb(85,124,179); fill-rule: nonzero; opacity: 1;" vector-effect="non-scaling-stroke"  transform=" translate(0, 0)" d="M -5.55556 -3.11823 C -5.55556 -3.75156 -4.51626 -4.335430000000001 -2.8382699999999996 -4.6448 C -1.1602799999999995 -4.95417 0.8943700000000003 -4.94071 2.5337000000000005 -4.60963 L 4.05968 -4.30143 L 4.05968 -4.30143 C 4.98907 -4.113729999999999 5.55556 -3.7804599999999997 5.55556 -3.42141 L 5.55556 2.1390400000000005 L 5.55556 2.1390400000000005 C 5.55556 3.6460600000000003 1.84606 4.86773 -2.7298399999999994 4.86773 L -3.0154299999999994 4.86773 L -3.0154299999999994 4.86773 C -4.4182999999999995 4.86773 -5.555549999999999 4.49319 -5.555549999999999 4.0311699999999995 z" stroke-linecap="round" />
</g>
<g transform="matrix(0.58 0 0 1.63 7.82 58.33)" id="iP-vrY9P9QLS1nKlPjAja"  >
<path style="stroke: rgb(85,124,179); stroke-width: 5; stroke-dasharray: none; stroke-linecap: butt; stroke-dashoffset: 0; stroke-linejoin: miter; stroke-miterlimit: 4; fill: rgb(85,124,179); fill-rule: nonzero; opacity: 1;" vector-effect="non-scaling-stroke"  transform=" translate(0, 0)" d="M -5.55556 -3.11648 C -5.55556 -3.74948 -4.50323 -4.33281 -2.8058699999999996 -4.64069 C -1.1085099999999997 -4.94858 0.9675200000000004 -4.93271 2.61871 -4.59923 L 4.0524000000000004 -4.309670000000001 L 4.0524000000000004 -4.309670000000001 C 4.986980000000001 -4.120920000000001 5.555560000000001 -3.7881100000000005 5.555560000000001 -3.4298400000000004 L 5.555560000000001 2.1284599999999996 L 5.555560000000001 2.1284599999999996 C 5.555560000000001 3.63758 1.8010400000000009 4.8609599999999995 -2.8303899999999986 4.8609599999999995 L -2.9845999999999986 4.8609599999999995 L -2.9845999999999986 4.8609599999999995 C -4.404499999999999 4.8609599999999995 -5.555549999999998 4.485899999999999 -5.555549999999998 4.02323 z" stroke-linecap="round" />
</g>
<g transform="matrix(1 0 0 1 204.12 168.87)" id="UHqtlzKOinKL1yfqwpe2h"  >
<path style="stroke: rgb(85,124,179); stroke-width: 1; stroke-dasharray: none; stroke-linecap: butt; stroke-dashoffset: 0; stroke-linejoin: miter; stroke-miterlimit: 4; fill: rgb(255,255,255); fill-opacity: 0; fill-rule: nonzero; opacity: 1;" vector-effect="non-scaling-stroke"  transform=" translate(0, 0)" d="M -43.82716 8.80339 C 40.37037 11.76635 39.62963 3.86512 39.62963 3.86512 L 39.62963 -4.77686 L 39.62963 -4.77686 L 39.62963 -4.77686 L 43.82716 -9.46822" stroke-linecap="round" />
</g>
</svg>