<?xml version="1.0" encoding="UTF-8" standalone="no" ?>
<!DOCTYPE svg PUBLIC "-//W3C//DTD SVG 1.1//EN" "http://www.w3.org/Graphics/SVG/1.1/DTD/svg11.dtd">
<svg xmlns="http://www.w3.org/2000/svg" xmlns:xlink="http://www.w3.org/1999/xlink" version="1.1" width="90" height="90" viewBox="0 0 90 90" xml:space="preserve">
<desc>Created with Fabric.js 4.6.0</desc>
<defs>
</defs>
<g transform="matrix(1 0 0 1 45.13 43.94)" id="R-vNjfp9DK3WJ0mjY5TCJ"  >
<path style="stroke: none; stroke-width: 1; stroke-dasharray: none; stroke-linecap: butt; stroke-dashoffset: 0; stroke-linejoin: miter; stroke-miterlimit: 4; fill: rgb(71,76,78); fill-rule: nonzero; opacity: 1;" vector-effect="non-scaling-stroke"  transform=" translate(-44.55, -43.36)" d="M 55.36241 17.1813 C 57.14783 16.09828 59.502289999999995 16.15881 61.235879999999995 17.33198 C 62.969319999999996 18.50516 64.00451 20.738930000000003 63.818 22.90418 C 63.20039 21.12121 62.01714 19.56277 60.50363 18.538240000000002 C 58.98982 17.514020000000002 57.15451 17.029510000000002 55.362410000000004 17.18129 z M 56.2693 8.42433 C 57.05724 10.207149999999999 56.86271 12.49298 55.50512 14.124319999999999 C 54.075359999999996 15.84206 51.80762 15.92015 49.93177 14.518669999999998 C 48.38618 13.363839999999998 47.45806 11.639349999999999 47.765010000000004 9.647679999999998 C 45.895100000000006 9.529609999999998 44.114140000000006 7.937149999999997 43.75254 5.996279999999997 C 43.426880000000004 4.247959999999997 44.172940000000004 2.255189999999997 45.990140000000004 1.5792199999999967 C 46.816250000000004 1.2718899999999969 47.93757 1.2668699999999968 49.145320000000005 1.6573099999999967 C 50.5675 0.23685999999999674 52.728030000000004 0.01890999999999665 54.55057000000001 0.7732699999999967 C 56.372960000000006 1.5276299999999967 57.61576000000001 3.1820299999999966 57.62467000000001 5.248969999999996 C 57.63165000000001 6.758639999999996 56.98419000000001 7.780979999999996 56.26931000000001 8.424329999999996 z M 55.53314 12.74829 C 56.065870000000004 11.510850000000001 56.237390000000005 9.950990000000001 56.08352 9.30085 C 55.83612 8.25562 56.47942 7.68064 56.92492 5.485430000000001 C 57.37042 3.290230000000001 55.47957 1.2689200000000005 53.85602 0.9876200000000006 C 52.23247 0.7063200000000006 51.08397 1.0950300000000006 49.94542 2.0880400000000003 C 48.806869999999996 3.0810500000000003 48.418839999999996 1.4674300000000002 46.38142 2.0880400000000003 C 44.344 2.7086500000000004 44.54997 4.70143 44.54997 4.70143 C 44.54997 4.70143 44.302420000000005 5.48543 44.51804 6.89663 C 44.73366 8.30783 46.72802 8.62143 47.71792 8.935030000000001 C 48.70782 9.24863 48.31192 10.921220000000002 48.65852 12.541430000000002 C 49.005120000000005 14.161640000000002 52.56897 14.998020000000002 54.153020000000005 14.370820000000002 C 54.751920000000005 14.133690000000001 55.20928000000001 13.500570000000002 55.53314 12.748290000000003 z M 56.08352 9.30085 C 56.33092 10.34624 55.73707 13.74347 54.15302 14.37067 C 52.56897 14.99787 49.00512 14.1615 48.658519999999996 12.54128 C 48.31191999999999 10.92107 48.70782 9.24848 47.71791999999999 8.93488 C 46.728019999999994 8.62128 44.73351999999999 8.30768 44.51803999999999 6.8964799999999995 C 44.30256999999999 5.4852799999999995 44.549969999999995 4.70128 44.549969999999995 4.70128 C 44.549969999999995 4.70128 44.343999999999994 2.7085099999999995 46.38141999999999 2.08789 C 48.41883999999999 1.4672799999999997 48.80686999999999 3.0808999999999997 49.94541999999999 2.08789 C 51.083969999999994 1.0948799999999999 52.23246999999999 0.7061699999999997 53.856019999999994 0.9874699999999998 C 55.479569999999995 1.26877 57.370419999999996 3.29024 56.92491999999999 5.48544 C 56.47941999999999 7.6806399999999995 55.836119999999994 8.25563 56.08351999999999 9.30086 z M 55.08768 8.07106 C 56.239889999999995 7.539509999999999 56.847699999999996 6.129409999999999 56.66921 4.815109999999999 C 56.46176 3.2859999999999987 54.86627 2.093059999999999 53.29544 1.741989999999999 C 51.493539999999996 1.339329999999999 50.20248 1.895029999999999 49.45538 3.140489999999999 C 48.52458 2.249709999999999 46.9931 2.164099999999999 45.978699999999996 2.946059999999999 C 44.96415 3.728019999999999 44.57478 5.294449999999999 45.09468 6.501659999999999 C 45.614729999999994 7.709019999999999 46.98865 8.42873 48.213629999999995 8.135359999999999 C 48.657349999999994 7.044819999999999 49.79783 6.1000999999999985 50.89346 5.834479999999999 C 49.6814 6.673049999999999 48.683629999999994 8.61784 48.82322 10.140839999999999 C 48.96266 11.66368 50.01968 12.91448 51.29352 13.643749999999999 C 52.18601 14.154449999999999 53.28253 14.12873 54.11101 13.562679999999999 C 54.88707 13.032379999999998 55.3247 11.907499999999999 55.46117 10.942079999999999 C 55.59749 9.977129999999999 55.39746 8.990699999999999 55.08769 8.071069999999999 z M 83.99098 21.79749 C 82.57146999999999 22.79474 80.34143999999999 22.56126 79.21507 21.20965 C 78.70452999999999 22.22869 77.7023 23.0163 76.66859 23.05346 C 75.4053 23.09862 74.14053 22.406190000000002 73.44762 21.289930000000002 C 72.75472 20.17367 72.54073 18.740050000000004 73.08409 17.535040000000002 C 71.85095 17.296080000000003 70.78887 16.259790000000002 70.46603 14.980450000000001 C 70.14334000000001 13.70128 70.57637 12.24445 71.53345 11.38926 C 72.49053 10.53423 74.13042 10.4505 75.27179 10.99836 C 75.56685999999999 9.6469 76.58511999999999 8.49912 77.84277 8.09991 C 79.10057 7.700539999999999 80.54933 8.06526 81.50122 9.02095 C 82.45311000000001 9.97665 83.02854 11.60047 82.71447 12.94707 C 84.23066 13.77074 85.44167 15.286529999999999 85.76050000000001 17.05523 C 86.07903 18.823780000000003 85.41063000000001 20.800400000000003 83.99097 21.797490000000003 z M 82.42757 14.11931 C 82.10503 14.86223 81.10102 15.497900000000001 80.60711 15.47516 C 81.1778 14.54142 81.62968000000001 13.47863 81.61736 12.36738 C 81.60489000000001 11.25629 81.03613 10.10068 80.05781 9.69096 C 78.92461 9.216330000000001 77.57222 9.89057 76.90397 10.96716 C 76.23572 12.04375 76.34635 13.31587 76.46396 14.59692 C 75.7026 14.12119 75.0489 13.264280000000001 74.94065 12.33727 C 74.13177 11.96111 73.10638 12.19082 72.51208000000001 12.88152 C 71.91763000000002 13.57222 71.79898000000001 14.67186 72.23097000000001 15.48597 C 72.66296000000001 16.30008 73.53614000000002 16.81093 74.48966000000001 16.80074 C 73.89893000000002 18.018610000000002 73.84487000000001 19.72051 74.71761000000002 20.73203 C 75.20142000000003 21.29275 76.08322000000003 21.8185 76.89373000000002 21.669220000000003 C 77.60148000000002 21.538760000000003 78.24597000000001 20.82015 78.33923000000001 20.068130000000004 C 78.11292000000002 19.289300000000004 78.22399000000001 18.468930000000004 78.41883000000001 17.967640000000003 C 78.57431000000001 19.56481 79.93442000000002 20.828460000000003 81.44155000000002 21.041230000000002 C 83.25637000000002 21.29744 84.45818000000003 19.9844 84.62420000000002 18.321220000000004 C 84.78369000000002 16.724210000000003 83.82898000000002 14.742420000000003 82.42759000000001 14.119290000000003 z M 16.2827 19.30829 C 16.07124 19.15306 15.852349999999998 18.99422 15.609549999999999 18.94357 C 15.3669 18.89308 15.091879999999998 18.97916 14.979759999999999 19.220480000000002 C 14.76414 19.685080000000003 15.25241 20.20268 15.668349999999998 20.48319 C 18.29903 22.25676 20.92971 24.03032 23.56038 25.80404 C 23.72863 25.91756 23.904899999999998 26.03391 24.09528 26.05178 C 24.28566 26.069660000000002 24.493109999999998 25.95519 24.53068 25.74398 C 24.58102 25.46143 24.32783 25.21933 24.1076 25.05767 C 21.49935 23.141260000000003 18.89094 21.224690000000002 16.282690000000002 19.308280000000003 z M 64.99828 29.2248 C 65.24331 29.27733 65.43724999999999 29.01626 65.56436 28.789209999999997 C 67.06867 26.098989999999997 68.57311999999999 23.408769999999997 70.07757 20.718399999999995 C 70.19949 20.500289999999996 70.32408 20.274499999999996 70.35436999999999 20.023929999999996 C 70.38480999999999 19.773359999999997 70.29630999999999 19.489239999999995 70.08350999999999 19.373049999999996 C 69.67379999999999 19.149609999999996 69.25591999999999 19.652779999999996 69.03747999999999 20.081939999999996 C 67.65672999999998 22.795519999999996 66.27596999999999 25.509099999999997 64.89522 28.222679999999997 C 64.80686 28.396259999999998 64.71642999999999 28.578149999999997 64.71123 28.774619999999995 C 64.70618 28.971249999999994 64.81518 29.185589999999994 64.99828 29.224789999999995 z M 73.19919 9.38222 C 72.00183 8.75298 70.43189 9.03977 69.50451 10.0574 C 68.57713 11.07503 68.36596 12.742439999999998 69.00748 13.98148 C 69.15776 11.676359999999999 71.02352 9.62918 73.19919 9.38222 z M 66.47778 51.69691 C 66.49871999999999 51.810120000000005 66.60475 52.09095 66.97793 52.438100000000006 C 68.2972 53.66537 71.41066000000001 55.95120000000001 72.22236 56.626070000000006 C 72.52351999999999 56.87648000000001 72.91911999999999 57.139590000000005 73.26171 56.957550000000005 C 73.57518999999999 56.790870000000005 73.63682 56.31608000000001 73.48326999999999 55.98272000000001 C 73.32956999999999 55.64921000000001 73.02707999999998 55.42530000000001 72.73720999999999 55.216440000000006 C 71.01876999999999 53.978030000000004 69.30017999999998 52.73931 67.58187999999998 51.500910000000005 C 67.24968999999999 51.261320000000005 66.33492999999999 50.925450000000005 66.47777999999998 51.69691 z M 79.04949 59.45036 C 81.3208 58.886190000000006 83.88302 60.316370000000006 84.72056 62.616 C 84.99989000000001 61.13596 84.266 59.50666 83.00256 58.80121 C 81.73912 58.09592 80.05083 58.373149999999995 79.04949 59.450359999999996 z M 85.86431 45.04859 C 85.20883 45.98923 84.24239 46.585539999999995 83.13711 46.544619999999995 C 82.16221 46.508559999999996 81.42015 46.309419999999996 80.63147000000001 45.56603 C 79.83699000000001 46.98648 77.90263 47.22858 76.54341000000001 46.41542 C 75.18419000000002 45.602259999999994 74.58974 43.7078 75.04267000000002 42.129129999999996 C 75.57890000000002 40.258979999999994 77.03450000000001 39.43405 78.59345000000002 39.32617 C 77.75873000000001 38.21508 78.02752000000002 36.41533 79.07340000000002 35.52565 C 80.11914000000002 34.63597 81.73868000000002 34.6852 82.81812000000002 35.52926 C 83.89742000000003 36.373310000000004 84.41375000000002 38.0735 84.23333000000002 39.47874 C 85.16561000000003 39.71002 86.26229000000002 40.178850000000004 86.61987000000002 41.87684 C 86.85094000000002 42.97397 86.49528000000002 44.14338 85.86430000000001 45.048590000000004 z M 85.27075 42.36025 C 85.22189 40.79084 84.16739000000001 40.3979 83.16992 40.26854 C 83.43083 39.44565 83.44658000000001 38.51426 83.09552000000001 37.72963 C 82.74447 36.94516 81.99350000000001 36.34242 81.17200000000001 36.31765 C 80.33461000000001 36.292410000000004 79.44940000000001 36.86033 79.19561000000002 37.71254 C 79.07042000000001 38.13308 79.19576000000002 38.94405 79.56864000000002 39.586459999999995 C 80.05349000000001 39.76913 80.84500000000001 40.103739999999995 81.12611000000001 40.726079999999996 C 80.27298000000002 40.26492999999999 79.50003000000001 40.08148 78.52810000000001 40.28688 C 77.65982000000001 40.47033999999999 76.73971 41.025879999999994 76.3649 42.11752 C 76.063 42.99638 76.39371 44.20469 77.0385 44.84537 C 77.61884 45.42208 78.54696 45.509260000000005 79.27239 45.16085 C 79.99796 44.8126 80.52246 44.08787 80.77833 43.290850000000006 C 80.90946 43.430400000000006 81.04132 44.1037 80.88302 44.648900000000005 C 81.65715 45.094370000000005 82.89846 45.31530000000001 83.86861 44.826080000000005 C 84.8839 44.313970000000005 85.30015 43.30794 85.27075 42.360240000000005 z M 72.93055 23.98219 C 72.78605999999999 23.71406 72.33863 23.663729999999997 72.01549 23.79748 C 71.6925 23.93123 71.46693 24.19199 71.25591 24.44208 C 70.00509 25.924 68.75443 27.405910000000002 67.50361 28.88767 C 67.26185 29.17414 66.90293 29.96112 67.64081999999999 29.83427 C 67.74923 29.81561 68.02023999999999 29.72294 68.36595 29.40072 C 69.5884 28.26157 71.89416 25.57652 72.57012999999999 24.8761 C 72.82095 24.616130000000002 73.0881 24.275090000000002 72.93054 23.98218 z M 31.61146 63.7172 C 31.29174 63.64789 31.03914 63.98956 30.874010000000002 64.28685 C 28.917080000000002 67.80921000000001 26.960140000000003 71.33156 25.003210000000003 74.85392 C 24.844610000000003 75.1393 24.682600000000004 75.43502000000001 24.643390000000004 75.76352 C 24.604330000000004 76.09186 24.720310000000005 76.46457 24.998450000000005 76.61714 C 25.533640000000005 76.91098000000001 26.077750000000005 76.25258000000001 26.361680000000007 75.69061 C 28.157190000000007 72.13752000000001 29.95286000000001 68.58428 31.74837000000001 65.03103 C 31.863160000000008 64.80383 31.98092000000001 64.56565 31.98716000000001 64.30818000000001 C 31.99340000000001 64.05071000000001 31.85054000000001 63.76910000000001 31.61145000000001 63.717200000000005 z M 51.8036 79.37384 C 51.093180000000004 79.6382 50.12867 79.64244000000001 49.089760000000005 79.30673 C 47.866710000000005 80.52836 46.00809 80.71574 44.44037 80.06705 C 42.87266 79.41837 41.8039 77.99508999999999 41.79618 76.21714 C 41.79039 74.91884 42.347409999999996 74.03919 42.96235 73.48584 C 42.2846 71.95249 42.45181 69.98622 43.61961 68.58301999999999 C 44.84934 67.10533999999998 46.799890000000005 67.03822999999998 48.413340000000005 68.24385999999998 C 49.74286000000001 69.23718999999998 50.5412 70.72051999999998 50.27716 72.43370999999999 C 51.88571 72.53515999999999 53.41749 73.90495999999999 53.72845 75.57440999999999 C 54.00867 77.07827999999999 53.3667 78.79241999999999 51.80359 79.37382999999998 z M 52.58501 75.01605 C 52.1459 73.99622000000001 50.98522 73.38815000000001 49.950469999999996 73.6359 C 49.57566 74.55726000000001 48.61219 75.35553 47.686589999999995 75.57959000000001 C 48.710649999999994 74.87117 49.55338 73.22822000000001 49.435469999999995 71.94167000000002 C 49.31755999999999 70.65528000000002 48.42478 69.59876000000001 47.3486 68.98270000000002 C 46.59496 68.55119000000002 45.66862 68.57298000000003 44.968889999999995 69.05122000000003 C 44.31325999999999 69.49904000000002 43.94365 70.44941000000003 43.82825999999999 71.26492000000003 C 43.71301999999999 72.08012000000004 43.88201999999999 72.91367000000004 44.14366999999999 73.69046000000003 C 43.170399999999994 74.13954000000003 42.65688999999999 75.33075000000002 42.80761999999999 76.44089000000002 C 42.98299999999999 77.73261000000002 44.330639999999995 78.74052000000002 45.65747999999999 79.03703000000003 C 47.17960999999999 79.37713000000004 48.27018999999999 78.90783000000003 48.90160999999999 77.85554000000003 C 49.68761999999999 78.60802000000004 50.98149999999999 78.68031000000003 51.83834999999999 78.01971000000003 C 52.69519999999999 77.35911000000003 53.024269999999994 76.03572000000003 52.58500999999999 75.01605000000004 z M 25.35204 69.33268 C 26.586219999999997 67.50784 27.820259999999998 65.68316 29.05444 63.85848 C 29.29308 63.50568 29.6376 62.5274 28.88901 62.66445 C 28.77912 62.68468 28.50543 62.79303 28.161949999999997 63.18753 C 26.947219999999998 64.58242 24.670859999999998 67.88745 24.00098 68.7475 C 23.75254 69.06659 23.48969 69.48728 23.658089999999998 69.86015 C 23.812379999999997 70.20166 24.269759999999998 70.27818 24.595419999999997 70.11997000000001 C 24.920779999999997 69.9616 25.143679999999996 69.64048000000001 25.352029999999996 69.33268000000001 z M 88.7464 70.85129 C 88.36089 71.83788000000001 87.48356 72.57484000000001 86.48593 72.747 C 86.87411 74.34401 86.38139 76.14517 85.2464 77.27758 C 84.11156 78.41015 82.3805 78.82786 80.89268 78.3283 C 79.40456 77.82874 78.05127999999999 76.08433 77.74403 74.46804 C 76.37559999999999 75.01606 74.78903 74.24805 73.85318 73.05982 C 72.80121 71.7242 72.37604999999999 69.86345 72.73557 68.16829 C 73.09509 66.47312 74.23125999999999 64.98164 75.7222 64.24735 C 75.78828 62.83819 76.7614 61.25608 77.92490000000001 60.562549999999995 C 79.08855000000001 59.86901999999999 80.58914000000001 59.85303 81.76585000000001 60.52114999999999 C 82.94271000000002 61.18958999999999 83.81530000000001 62.71650999999999 84.17808000000001 64.01324 C 85.77312 63.974509999999995 87.36237000000001 64.63965999999999 88.26495000000001 66.0289 C 89.16753000000001 67.41815 89.35494000000001 69.29378999999999 88.74639000000002 70.85127999999999 z M 87.82273 67.19691 C 86.8208 65.5331 84.22472 64.33813 82.43871000000001 64.91939 C 82.63443000000001 64.61285000000001 82.98668000000002 64.57004 83.41406000000002 64.29156 C 83.20245000000003 63.644450000000006 82.86075000000002 62.89902000000001 82.41376000000002 62.302550000000004 C 82.13072000000003 61.924980000000005 81.80565000000003 61.60667 81.44361000000002 61.41161 C 81.26942000000003 61.317840000000004 81.08751000000002 61.24038 80.90069000000003 61.179700000000004 C 80.08528000000003 60.913920000000005 79.17750000000002 60.966770000000004 78.42356000000002 61.388560000000005 C 77.49707000000002 61.90710000000001 76.87946000000002 63.15099000000001 76.91688000000002 64.27007 C 78.54043000000001 64.44271 79.51325000000001 65.54109 80.25234000000002 67.09937000000001 C 79.67571000000002 66.43328000000001 78.90218000000002 65.97856 78.07637000000001 65.76939 C 77.25041000000002 65.56038 76.30759 65.61447 75.59746000000001 66.11215 C 75.03554000000001 66.50587 74.52633000000002 67.38410999999999 74.32199000000001 68.06917 C 73.98504000000001 69.1986 74.12255000000002 70.49408 74.74135000000001 71.47706 C 75.36015 72.46003999999999 76.46321000000002 73.08975 77.56834 73.02546 C 78.67333 72.96132999999999 79.72931000000001 72.17451 80.11497 71.06311 C 80.31797 72.15162 79.88479 73.37795 79.11586 74.12196999999999 C 79.09581 75.55685 80.1561 77.08438999999998 81.40603 77.40677 C 82.65595 77.72914999999999 84.02646 77.12437 84.84039 76.05812999999999 C 85.80965 74.78867999999999 86.00715 72.90048999999999 85.32435 71.43252999999999 C 86.27861 71.92362999999999 87.38047999999999 71.38344999999998 87.9375 70.41896999999999 C 88.49452 69.45448999999999 88.39666 68.14991999999998 87.82271 67.19688999999998 z M 73.02574 64.02751 C 73.30076 64.17208000000001 73.66459 64.17961000000001 73.88853 63.957730000000005 C 74.31933000000001 63.53045 73.91912 62.785810000000005 73.51921 62.3267 C 70.98981 59.421980000000005 68.46071 56.5171 65.93116 53.61238 C 65.76929000000001 53.42642 65.59911000000001 53.23449 65.37562000000001 53.144960000000005 C 65.15213000000001 53.05543 64.85943000000002 53.103410000000004 64.73648000000001 53.32011000000001 C 64.57209000000002 53.60972000000001 64.78949000000001 53.96707000000001 64.99636000000001 54.22485 C 67.44616 57.277120000000004 69.89612000000001 60.329550000000005 72.34592 63.381660000000004 C 72.54461 63.628930000000004 72.75088000000001 63.88295 73.02575 64.02752000000001 z M 56.2589 65.14188 C 57.95981999999999 65.84121 59.988029999999995 65.57041 61.47081 64.44616 C 62.95343 63.32206000000001 63.84458 61.37915000000001 63.76053 59.45380000000001 C 62.33315 62.48177000000001 59.4322 64.68136000000001 56.258900000000004 65.14188000000001 z M 22.99178 12.79968 C 24.19552 11.47676 24.64652 9.44322 24.12409 7.69364 C 23.60152 5.94407 22.12736 4.55137 20.422729999999998 4.19684 C 22.702949999999998 6.25672 23.740519999999997 9.73157 22.99178 12.79967 z M 23.62157 28.81132 C 21.90194 28.367579999999997 20.02312 29.124609999999997 18.80765 30.483279999999997 C 17.59218 31.842269999999996 16.98971 33.72089 16.87566 35.58602 C 16.76161 37.45131 17.100929999999998 39.316289999999995 17.56708 41.119339999999994 C 17.04941 36.246469999999995 19.54852 31.16613999999999 23.621570000000002 28.811319999999995 z M 11.93373 70.94803 C 12.9116 68.54052 15.277800000000001 66.83532 17.757460000000002 66.75128000000001 C 16.469520000000003 66.2249 14.941310000000001 66.41071000000001 13.800530000000002 67.23281000000001 C 12.659900000000002 68.05491000000002 11.938930000000003 69.48979000000001 11.933740000000002 70.94803000000002 z M 19.34907 19.17705 C 20.66834 20.478180000000002 21.98762 21.77946 23.30674 23.08059 C 23.56171 23.3321 24.30421 23.74746 24.278080000000003 23.06616 C 24.27437 22.96612 24.218230000000002 22.71054 23.941580000000002 22.36103 C 22.963260000000002 21.12498 20.578500000000002 18.73174 19.96638 18.03993 C 19.73932 17.78341 19.43282 17.50258 19.11651 17.611079999999998 C 18.826790000000003 17.710489999999997 18.71467 18.10908 18.804810000000003 18.416249999999998 C 18.894950000000005 18.723419999999997 19.12646 18.95752 19.349060000000005 19.177039999999998 z M 20.51109 13.90136 C 19.39348 15.50887 16.97679 16.47178 15.103459999999998 16.21824 C 15.169099999999998 18.086360000000003 13.721819999999997 19.70924 12.070199999999998 20.38222 C 10.213649999999998 21.13862 8.029659999999998 20.93353 6.328739999999998 19.842670000000002 C 4.627819999999998 18.75197 3.448429999999998 16.80028 3.228059999999998 14.712170000000002 C 1.7243499999999978 14.087010000000003 0.38353999999999777 12.297760000000002 0.08074999999999788 10.621410000000001 C -0.22189000000000214 8.94522 0.3409199999999979 7.122890000000001 1.521349999999998 5.957550000000001 C 2.701929999999998 4.792060000000001 4.696729999999998 4.326520000000001 6.2446899999999985 4.389080000000002 C 6.8195299999999985 2.4438200000000014 8.156179999999999 0.7779800000000017 10.013029999999999 0.2232200000000013 C 11.869869999999999 -0.33169999999999866 13.978279999999998 0.1672400000000013 15.43328 1.5058400000000014 C 16.35517 2.3539700000000012 16.81552 3.7007300000000014 16.61653 4.9744100000000016 C 18.49996 5.122270000000001 20.26443 6.415090000000001 21.0546 8.226440000000002 C 21.844920000000002 10.037640000000001 21.62885 12.293830000000002 20.51109 13.90135 z M 18.66939 8.53723 C 17.79725 6.937869999999999 16.0255 6.043949999999999 14.32903 6.347199999999999 C 15.17325 5.379589999999999 15.06514 3.876189999999999 14.33423 2.875329999999999 C 13.60346 1.874479999999999 12.28953 1.536409999999999 11.138359999999999 1.889059999999999 C 9.128709999999998 2.5049699999999993 6.969369999999999 5.186559999999999 6.856659999999999 7.520689999999999 C 6.631529999999999 7.180279999999999 6.724049999999999 6.744839999999999 6.6145999999999985 6.137709999999999 C 5.4488699999999985 6.181609999999999 3.8937799999999987 6.546169999999999 3.0458499999999984 7.485719999999999 C 2.1979099999999985 8.425419999999999 1.7175199999999984 9.795379999999998 1.8712099999999985 11.08193 C 2.0249099999999984 12.36847 3.0063399999999985 13.53899 4.115339999999999 13.88442 C 4.903429999999998 12.0069 6.349079999999999 11.22854 8.155279999999998 10.889700000000001 C 7.283579999999998 11.345830000000001 6.543759999999997 12.11039 6.0241599999999975 13.023120000000002 C 5.504559999999998 13.935850000000002 5.197909999999998 15.080020000000003 5.413819999999998 16.101100000000002 C 5.584739999999997 16.90893 6.249579999999997 17.82261 6.841799999999997 18.305550000000004 C 7.818039999999997 19.101310000000005 9.137909999999998 19.388720000000003 10.335559999999997 18.992960000000004 C 11.533209999999997 18.597200000000004 12.569739999999998 17.500220000000002 12.928519999999997 16.158960000000004 C 13.287299999999997 14.817540000000005 12.920349999999997 13.283250000000004 11.980349999999998 12.435590000000005 C 13.122609999999998 12.572630000000006 14.156909999999998 13.517040000000005 14.591429999999997 14.694140000000004 C 15.987479999999998 15.218170000000004 17.8862 14.485130000000005 18.678299999999997 13.105910000000005 C 19.470549999999996 11.726540000000005 19.40179 9.880220000000005 18.669389999999996 8.537230000000005 z M 18.32561 54.24961 C 19.5344 55.443639999999995 19.32665 57.611869999999996 18.217650000000003 58.909549999999996 C 17.108650000000004 60.20690999999999 15.116230000000002 60.42048 13.673850000000002 59.56294 C 11.965210000000003 58.54703 11.491940000000001 56.76782 11.744690000000002 55.04051 C 10.464320000000003 55.6964 8.763260000000002 54.989239999999995 8.132280000000002 53.64232 C 7.501300000000001 52.29541 7.9220000000000015 50.53815 8.997000000000002 49.553599999999996 C 10.071840000000002 48.56905 11.856070000000003 48.39595 13.191090000000003 48.91620999999999 C 13.631990000000002 47.95110999999999 14.343450000000002 46.86149999999999 16.08892 46.86149999999999 C 17.21693 46.86149999999999 18.28048 47.51848999999999 19.022090000000002 48.415699999999994 C 19.79266 49.347879999999996 20.154700000000002 50.540499999999994 19.860370000000003 51.738139999999994 C 19.600790000000003 52.79465999999999 19.235180000000003 53.559059999999995 18.325620000000004 54.24961 z M 18.34521 50.54411 C 18.077170000000002 49.317460000000004 17.1875 48.631460000000004 16.25225 48.445660000000004 C 14.70369 48.138020000000004 14.07628 49.19924 13.720320000000001 50.25905 C 12.974260000000001 49.784890000000004 12.06544 49.553450000000005 11.21631 49.75651 C 10.36719 49.95957 9.60405 50.64102 9.3908 51.53243 C 9.173540000000001 52.441089999999996 9.52623 53.53837 10.30289 54.0116 C 10.68602 54.24492 11.5093 54.29462 12.22418 54.03512 C 12.51465 53.54763 13.024600000000001 52.76018 13.698640000000001 52.59617 C 13.050730000000001 53.42172 12.693290000000001 54.22375 12.67102 55.33233 C 12.65112 56.32268 12.98376 57.4554 13.96683 58.11584 C 14.75834 58.64786 16.01806 58.56429 16.79382 58.00749 C 17.49222 57.50651 17.791 56.512719999999995 17.61651 55.64044 C 17.442020000000003 54.768 16.852770000000003 54.02869 16.13106 53.565979999999996 C 16.297970000000003 53.454809999999995 16.98776 53.465469999999996 17.485380000000003 53.763859999999994 C 18.09943 53.020939999999996 18.601360000000003 51.716049999999996 18.345200000000002 50.544129999999996 z M 23.19166 79.17705 C 23.24007 80.68687999999999 22.497719999999997 82.19874 21.30125 83.0268 C 20.10449 83.85485999999999 18.56766 84.11092 17.27601 83.46145 C 17.0197 84.93521 15.908769999999999 86.20467 14.537519999999999 86.59024 C 13.166269999999999 86.97612 11.604499999999998 86.45853 10.687809999999999 85.31466999999999 C 9.77112 84.17080999999999 9.681429999999999 82.21081 10.26859 80.84665 C 8.81997 80.49401 7.58935 79.27708 7.161379999999999 77.77368 C 6.7334 76.27028 7.124249999999999 74.53874 8.14861 73.401 C 9.17296 72.26326 10.913979999999999 71.57538 12.35755 71.95107 C 13.24038 70.13878 14.86557 68.69151000000001 16.76147 68.31033000000001 C 18.65737 67.92915 20.77632 68.7282 21.84537 70.42494 C 22.91442 72.12152 22.66405 74.78696000000001 21.215139999999998 76.13309000000001 C 22.307509999999997 76.74367000000001 23.15188 77.94115000000001 23.191679999999998 79.17705000000001 z M 21.7077 78.90767 C 21.56796 78.06173 20.797539999999998 77.29137999999999 19.99119 77.17989 C 19.15632 77.45053 18.27691 77.31787 17.73934 77.08471 C 19.451549999999997 76.8989 20.806009999999997 75.27336 21.03426 73.47188 C 21.30899 71.30287 19.90135 69.86626 18.11831 69.66807 C 16.406550000000003 69.47771 14.281960000000002 70.61875 13.61401 72.29384 C 14.41042 72.6791 15.09188 73.87909 15.067680000000001 74.46944 C 14.066640000000001 73.78752 12.927200000000001 73.24734000000001 11.736080000000001 73.26224 C 10.544960000000001 73.27698000000001 9.306170000000002 73.95702 8.866760000000001 75.12612 C 8.357850000000001 76.48072 9.080750000000002 78.09701 10.234890000000002 78.89575 C 11.389030000000002 79.69449 12.752560000000003 79.56215 14.126180000000002 79.42166 C 13.616230000000002 80.33157 12.697610000000001 81.11291 11.703850000000001 81.24242000000001 C 11.30052 82.20909 11.546740000000002 83.43448000000001 12.28716 84.14495000000001 C 13.02758 84.85541 14.20652 84.99716000000001 15.07926 84.48097000000001 C 15.95199 83.96463000000001 16.49966 82.92081000000002 16.48867 81.78119000000001 C 17.79428 82.48726 19.61875 82.55186 20.703249999999997 81.50883 C 21.304229999999997 80.93039 21.867789999999996 79.87638 21.707699999999996 78.90767 z M 43.13076 58.39321 C 43.111450000000005 58.34617 43.08814 58.30525 43.06275 58.26793000000001 C 43.08532 58.30964000000001 43.1073 58.35166000000001 43.13076 58.39321 z M 39.36034 59.72993 C 39.36034 59.72993 31.642200000000003 62.102630000000005 29.297530000000002 59.420410000000004 C 26.95286 56.73819 25.291890000000002 54.46898 25.585030000000003 52.30247000000001 C 25.878170000000004 50.135960000000004 26.562010000000004 47.24551000000001 26.562010000000004 47.24551000000001 C 26.562010000000004 47.24551000000001 23.924200000000006 45.76140000000001 22.556370000000005 43.358120000000014 C 21.188680000000005 40.95500000000001 20.504690000000004 36.10659000000001 20.993260000000006 35.07500000000002 C 21.481830000000006 34.043410000000016 24.705760000000005 30.845480000000016 24.705760000000005 30.845480000000016 L 26.464300000000005 29.710720000000016 L 27.441280000000006 28.782310000000017 C 27.441280000000006 28.782310000000017 25.233980000000006 19.834360000000018 30.469940000000005 16.40342000000002 C 35.70590000000001 12.972480000000019 39.75119000000001 12.999290000000018 41.509730000000005 14.649770000000018 C 43.255050000000004 16.288020000000017 47.30955 20.10077000000002 47.37013 20.157840000000018 C 46.012840000000004 16.767670000000017 43.109660000000005 14.073840000000018 39.714510000000004 13.193100000000019 C 35.777770000000004 12.171860000000018 31.355740000000004 13.63261000000002 28.672200000000004 16.84090000000002 C 25.988660000000003 20.04903000000002 25.162110000000006 24.86295000000002 26.608350000000005 28.86166000000002 C 22.811060000000005 29.91222000000002 19.816110000000005 33.05418000000002 19.450060000000004 37.18116000000002 C 19.084160000000004 41.30798000000002 21.371350000000003 45.55365000000002 24.917830000000002 47.33067000000002 C 23.68662 50.61924000000002 23.856650000000002 54.862870000000015 25.741560000000003 57.78578000000002 C 27.626320000000003 60.70885000000002 30.929410000000004 62.550930000000015 34.27823000000001 62.546700000000016 C 37.52696000000001 62.542620000000014 40.728480000000005 60.80105000000002 42.631800000000005 58.02443000000002 C 41.55711000000001 57.903540000000014 39.36034000000001 59.72994000000001 39.36034000000001 59.72994000000001 z M 63.06332 49.68736 C 64.00555 53.29329 63.136089999999996 57.36962 60.820969999999996 60.201119999999996 C 58.50599999999999 63.03261 54.81354999999999 64.53538999999999 51.29765999999999 64.07753 C 48.07921999999999 63.658089999999994 44.97274999999999 61.51573 43.24732999999999 58.59392 C 43.207829999999994 58.52728 43.16847999999999 58.46048 43.13060999999999 58.39322 C 43.11129999999999 58.34618 43.08798999999999 58.30526 43.06259999999999 58.26794 C 42.972309999999986 58.1022 42.88543999999999 57.934900000000006 42.80420999999999 57.764770000000006 C 42.74792999999999 57.85242000000001 42.69030999999999 57.93882000000001 42.63164999999999 58.02459 C 41.55709999999999 57.90354000000001 39.360339999999994 59.72995 39.360339999999994 59.72995 C 39.360339999999994 59.72995 31.642199999999995 62.102650000000004 29.297529999999995 59.42043 C 26.952859999999994 56.73821 25.291889999999995 54.469 25.585029999999996 52.302490000000006 C 25.878169999999997 50.13598 26.562009999999997 47.24553 26.562009999999997 47.24553 C 26.562009999999997 47.24553 23.9242 45.76142 22.556369999999998 43.358140000000006 C 21.188679999999998 40.955020000000005 20.504689999999997 36.10661 20.99326 35.07502000000001 C 21.48183 34.04343000000001 24.705759999999998 30.84550000000001 24.705759999999998 30.84550000000001 L 26.464299999999998 29.71074000000001 L 27.44128 28.78233000000001 C 27.44128 28.78233000000001 25.23398 19.83438000000001 30.469939999999998 16.40344000000001 C 35.7059 12.97250000000001 39.751189999999994 12.99931000000001 41.50973 14.64979000000001 C 43.25505 16.28804000000001 47.30955 20.10079000000001 47.370129999999996 20.15786000000001 C 47.371019999999994 20.15974000000001 47.371759999999995 20.16162000000001 47.37251 20.16350000000001 C 47.58798 20.702580000000008 47.76589 21.25875000000001 47.898939999999996 21.82856000000001 C 51.362849999999995 17.51703000000001 58.097919999999995 18.18061000000001 60.99872 21.02919000000001 C 63.6934 23.67550000000001 64.4313 27.81550000000001 63.26453 31.142790000000012 C 67.35645 31.838350000000013 70.67899 35.94197000000001 70.69339 40.31826000000001 C 70.70778999999999 44.69455000000001 67.15077 48.96155000000001 63.063309999999994 49.68738000000001 z M 67.32245 42.96926 C 68.53896 40.01922 68.08663 36.3142 66.0201 33.94934 C 63.95387 31.58448 60.32082 30.84329 57.67277 32.43544 C 58.7834 31.19625 59.82201 30.335729999999998 61.43116 30.18191 C 61.91052 27.46802 61.03734 24.30395 59.11322 22.435049999999997 C 57.18896 20.566149999999997 54.33286 19.834839999999996 51.81147 20.565209999999997 C 49.29024 21.29574 47.18763 23.46382 46.43621 26.108089999999997 C 46.43636 25.264659999999996 46.472440000000006 24.19372 46.323350000000005 23.365029999999997 C 45.67396000000001 19.75267 43.12377000000001 16.56038 39.82246000000001 15.390809999999998 C 36.52116000000001 14.221239999999998 32.601350000000004 15.184149999999999 30.209010000000006 17.85586 C 27.816670000000006 20.52758 27.141300000000008 24.99559 28.679010000000005 28.29467 C 29.722520000000006 28.35269 30.546400000000006 28.6136 31.178410000000007 29.05954 C 28.627920000000007 29.006069999999998 25.93755000000001 30.636629999999997 24.175450000000005 32.58425 C 22.413200000000003 34.532019999999996 21.545810000000003 37.38719 22.055320000000005 40.02661 C 22.564970000000006 42.666019999999996 24.496960000000005 44.98259 26.955230000000007 45.70261 C 27.635810000000006 44.8827 28.505270000000007 44.37812 29.48805000000001 44.13602 C 28.91454000000001 41.567640000000004 29.864650000000008 38.68863 31.829000000000008 37.056340000000006 C 30.553980000000006 39.021040000000006 30.11145000000001 41.56512000000001 30.64204000000001 43.880120000000005 C 31.17263000000001 46.19512 32.66817000000001 48.243860000000005 34.65303000000001 49.37518000000001 C 32.27851000000001 48.888470000000005 30.243030000000008 46.90480000000001 29.567940000000007 44.456680000000006 C 27.16447000000001 46.76948000000001 26.50943000000001 50.88532000000001 27.608330000000006 54.14818 C 28.779400000000006 57.62538000000001 32.239900000000006 60.083690000000004 35.73158000000001 59.919050000000006 C 39.22326000000001 59.754250000000006 42.46234000000001 56.97983000000001 43.335080000000005 53.406200000000005 C 43.728750000000005 54.46162 43.786370000000005 55.34535 43.49962000000001 56.43871000000001 C 44.901610000000005 59.18977000000001 47.72816000000001 61.10900000000001 50.67054000000001 61.437650000000005 C 53.61292000000001 61.76646 56.67558000000001 60.47317 58.59183000000001 58.09279000000001 C 60.26825000000001 56.010490000000004 61.02560000000001 53.147940000000006 60.66593000000001 50.44644000000001 C 59.65004000000001 52.26156000000001 57.80656000000001 53.55406000000001 55.81651000000001 53.78471000000001 C 57.639790000000005 52.81224000000001 59.115730000000006 51.13338000000001 59.89878000000001 49.14123000000001 C 60.68167000000001 47.14909000000001 60.76543000000001 44.85996000000001 60.13029000000001 42.810120000000005 C 61.44080000000001 44.54025000000001 61.85274000000001 46.97222000000001 61.23468000000001 49.084320000000005 C 63.89877000000001 48.190250000000006 66.21448000000001 45.656040000000004 67.32244000000001 42.969280000000005 z" stroke-linecap="round" />
</g>
<g transform="matrix(0.15 0 0 0.16 45.52 43.83)" id="AjzeL39URg231u_7aYdzn"  >
<path style="stroke: none; stroke-width: 1; stroke-dasharray: none; stroke-linecap: butt; stroke-dashoffset: 0; stroke-linejoin: miter; stroke-miterlimit: 4; fill: rgb(255,255,255); fill-rule: nonzero; opacity: 1;" vector-effect="non-scaling-stroke"  transform=" translate(0, 0)" d="M 67.42293 -224.04701 C 69.50892999999999 -218.18201 70.85593 -211.89101 69.93692999999999 -205.73401 C 69.01792999999999 -199.57701 66.07092999999999 -192.40301000000002 60.84492999999999 -189.02101000000002 C 55.26592999999999 -185.41201 47.88192999999999 -185.24701000000002 41.87192999999999 -188.50401000000002 C 33.29392999999999 -193.15501000000003 26.17692999999999 -201.13201000000004 25.23692999999999 -210.84401000000003 C 24.29792999999999 -220.55701000000002 31.01592999999999 -232.96101000000002 39.17792999999999 -238.30801000000002 C 31.79992999999999 -236.61501 24.11992999999999 -230.58901000000003 21.13192999999999 -223.63401000000002 C 12.88292999999999 -221.76301 3.6309299999999887 -226.35301 0.12892999999998978 -234.05301000000003 C -3.3710700000000102 -241.75201000000004 -0.7500700000000102 -251.74201000000002 6.08192999999999 -256.72901 C 12.91292999999999 -261.71601000000004 23.22692999999999 -261.17001 29.493929999999988 -255.48901 C 34.52492999999999 -263.43201 43.21992999999999 -266.97601000000003 55.352929999999986 -264.40801 C 65.93092999999999 -262.16901 76.67392999999998 -254.56100999999998 78.07192999999998 -244.80901 C 79.27492999999998 -236.43001 75.18192999999998 -227.43601 67.42292999999998 -224.04701 z M 251.52993 -185.47401 C 249.35793 -180.73601 242.59693000000001 -176.68201 239.27093000000002 -176.82701 C 243.11393 -182.78201 246.15693000000002 -189.56001 246.07393000000002 -196.64701 C 245.98993000000002 -203.73301 242.15993000000003 -211.10300999999998 235.57193 -213.71600999999998 C 227.94093 -216.74300999999997 218.83393 -212.44301 214.33393 -205.57700999999997 C 209.83393 -198.71101 210.57893 -190.59801 211.37093000000002 -182.42800999999997 C 206.24393 -185.46200999999996 201.84193000000002 -190.92700999999997 201.11293 -196.83900999999997 C 195.66593 -199.23800999999997 188.76093 -197.77300999999997 184.75893000000002 -193.36800999999997 C 180.75593000000003 -188.96300999999997 179.95693000000003 -181.95000999999996 182.86593000000002 -176.75800999999996 C 185.77493 -171.56600999999995 191.65493 -168.30800999999997 198.07593000000003 -168.37300999999997 C 194.09793000000002 -160.60600999999997 193.73393000000002 -149.75200999999996 199.61093000000002 -143.30100999999996 C 202.86893000000003 -139.72500999999997 208.80693000000002 -136.37200999999996 214.26493000000002 -137.32400999999996 C 219.03093 -138.15600999999995 223.37093000000002 -142.73900999999995 223.99893000000003 -147.53500999999997 C 222.47493000000003 -152.50200999999998 223.22293000000002 -157.73400999999998 224.53493000000003 -160.93100999999996 C 225.58193000000003 -150.74500999999995 234.74093000000002 -142.68600999999995 244.88993000000002 -141.32900999999995 C 257.11093 -139.69500999999997 265.20393 -148.06900999999996 266.32193 -158.67600999999996 C 267.39593 -168.86100999999996 260.96693 -181.50000999999997 251.52993 -185.47400999999996 z M 256.52893 -18.70601 C 258.28593 -23.95401 258.39193 -29.89401 256.02793 -34.89801 C 253.66393000000002 -39.90101 248.60693000000003 -43.74501 243.07493000000002 -43.90301 C 237.43593 -44.06401 231.47493000000003 -40.44201 229.76593000000003 -35.00701 C 228.92293000000004 -32.32501 229.76693000000003 -27.153010000000002 232.27793000000003 -23.05601 C 235.54293 -21.89101 240.87293000000003 -19.75701 242.76593000000003 -15.78801 C 237.02093000000002 -18.72901 231.81593000000004 -19.89901 225.27093000000002 -18.589010000000002 C 219.42393 -17.41901 213.22793000000001 -13.87601 210.70393 -6.914010000000001 C 208.67093000000003 -1.3090100000000007 210.89793 6.396989999999999 215.23993000000002 10.482989999999997 C 219.14793 14.160989999999998 225.39793 14.716989999999997 230.28293000000002 12.494989999999998 C 235.16893000000002 10.273989999999998 238.70093000000003 5.651989999999998 240.42393 0.5689899999999977 C 241.30693000000002 1.4589899999999978 242.19493 5.752989999999998 241.12893000000003 9.229989999999997 C 246.34193000000002 12.070989999999998 254.70093000000003 13.479989999999997 261.23393000000004 10.359989999999996 C 268.07093000000003 7.093989999999996 270.87493000000006 0.6779899999999959 270.67593000000005 -5.366010000000005 C 270.34693000000004 -15.375010000000005 263.24593000000004 -17.881010000000003 256.52893000000006 -18.706010000000006 z M 32.82793 194.09599 C 30.30393 199.97199 23.81593 205.06299 17.582930000000005 206.49199 C 24.478930000000005 201.97399 30.153930000000003 191.49598999999998 29.359930000000006 183.29099 C 28.565930000000005 175.08699 22.553930000000005 168.34899 15.306930000000005 164.41998999999998 C 10.231930000000006 161.66798999999997 3.993930000000004 161.80698999999998 -0.7180699999999938 164.85699 C -5.133069999999994 167.71299 -7.622069999999994 173.77399 -8.399069999999995 178.97499 C -9.175069999999995 184.17399 -8.037069999999995 189.48998999999998 -6.275069999999994 194.44398999999999 C -12.829069999999994 197.30799 -16.287069999999993 204.90499 -15.272069999999994 211.98498999999998 C -14.091069999999995 220.22298999999998 -5.016069999999994 226.65098999999998 3.918930000000005 228.54198999999997 C 14.168930000000005 230.71098999999998 21.512930000000004 227.71798999999996 25.764930000000007 221.00698999999997 C 31.057930000000006 225.80598999999998 39.77093000000001 226.26698999999996 45.54093 222.05398999999997 C 51.31093 217.84098999999998 53.52693 209.40298999999996 50.56893 202.89898999999997 C 47.61293 196.39398999999997 39.79593 192.51598999999996 32.82793 194.09598999999997 z M 224.56693 115.98799 C 218.32793 119.29499 214.16893000000002 127.22798999999999 214.42093 134.36499 C 225.35393 135.46599 231.90493 142.47099 236.88193 152.40899000000002 C 232.99893 148.16099000000003 227.78993 145.26099000000002 222.22893000000002 143.92699000000002 C 216.66693 142.59399000000002 210.31793000000002 142.93899000000002 205.53593 146.11299000000002 C 201.75193000000002 148.62399000000002 198.32293 154.22499000000002 196.94693 158.59399000000002 C 194.67793 165.79699000000002 195.60393000000002 174.05899000000002 199.77093000000002 180.32799000000003 C 203.93793000000002 186.59699000000003 211.36593000000002 190.61299000000002 218.80793000000003 190.20299000000003 C 226.24893000000003 189.79399000000004 233.35993000000002 184.77599000000004 235.95693000000003 177.68799 C 237.32393000000002 184.62999000000002 234.40693000000002 192.45099000000002 229.22893000000002 197.19599000000002 C 229.09393000000003 206.34699000000003 236.23393000000002 216.08899000000002 244.65093000000002 218.14499000000004 C 253.06793000000002 220.20099000000005 262.29693000000003 216.34399000000005 267.77793 209.54399000000004 C 274.30493 201.44799000000003 275.63493000000005 189.40599000000003 271.03693000000004 180.04399000000004 C 277.46293000000003 183.17599000000004 284.88293000000004 179.73099000000005 288.63393 173.57999000000004 C 292.38493 167.42899000000003 291.72593 159.10699000000002 287.86093 153.02999000000003 C 281.11393 142.41899000000004 263.63193 134.79799000000003 251.60493 138.50499000000002 C 252.92293 136.54999 255.29493 136.27699 258.17293 134.50099000000003 C 256.74793 130.37399000000002 254.44693 125.61999000000003 251.43693000000002 121.81599000000003 C 248.36893 118.77399000000003 245.01193 116.27799000000003 241.24793000000003 114.65499000000003 C 235.75593000000003 112.96099000000002 229.64293000000004 113.29799000000003 224.56693 115.98799000000002 z M -207.04607 -235.04101 C -201.36106999999998 -241.21201 -202.08907 -250.80001 -207.01107 -257.18301 C -211.93206999999998 -263.56601 -220.78007 -265.72201 -228.53206999999998 -263.47301000000004 C -242.06506999999996 -259.54501000000005 -256.60607 -242.44301000000004 -257.36506999999995 -227.55701000000005 C -258.88106999999997 -229.72801000000004 -258.2580699999999 -232.50501000000006 -258.99506999999994 -236.37701000000004 C -266.84506999999996 -236.09701000000004 -277.31706999999994 -233.77201000000005 -283.0270699999999 -227.78001000000003 C -288.7370699999999 -221.78701000000004 -291.9720699999999 -213.05001000000004 -290.93706999999995 -204.84501000000003 C -289.9020699999999 -196.64001000000002 -283.29306999999994 -189.17501000000004 -275.8250699999999 -186.97201000000004 C -270.5180699999999 -198.94601000000003 -260.78306999999995 -203.91001000000003 -248.62006999999994 -206.07101000000003 C -254.49006999999995 -203.16201000000004 -259.4720699999999 -198.28601000000003 -262.97106999999994 -192.46501000000004 C -266.47006999999996 -186.64401000000004 -268.53506999999996 -179.34701000000004 -267.08106999999995 -172.83501000000004 C -265.93006999999994 -167.68301000000005 -261.45306999999997 -161.85601000000003 -257.46506999999997 -158.77601000000004 C -250.89106999999996 -153.70101000000005 -242.00306999999998 -151.86801000000006 -233.93806999999998 -154.39201000000003 C -225.87306999999998 -156.91601000000003 -218.89307 -163.91201000000004 -216.47706999999997 -172.46601000000004 C -214.06106999999997 -181.02101000000005 -216.53206999999998 -190.80601000000004 -222.86206999999996 -196.21201000000005 C -215.17006999999995 -195.33801000000005 -208.20506999999995 -189.31501000000006 -205.27906999999996 -181.80801000000005 C -195.87806999999995 -178.46601000000004 -183.09206999999995 -183.14101000000005 -177.75806999999998 -191.93701000000004 C -172.42406999999997 -200.73401000000004 -172.88806999999997 -212.50901000000005 -177.82007 -221.07401000000004 C -183.69107 -231.27401000000003 -195.62206999999998 -236.97501000000005 -207.04607 -235.04101000000006 z M -194.09507 33.44399 C -204.52307 31.48199 -208.74806999999998 38.24999 -211.14507 45.00899 C -216.16907 41.984989999999996 -222.28907 40.50899 -228.00707 41.80399 C -233.72507 43.09899 -238.86407 47.44499 -240.30007 53.12999 C -241.76307 58.92499 -239.38807 65.92299 -234.15807 68.94099 C -231.57807 70.42899 -226.03407 70.74599 -221.22007000000002 69.09099 C -219.26407000000003 65.98199000000001 -215.83007000000003 60.959990000000005 -211.29107000000002 59.913990000000005 C -215.65407000000002 65.17899 -218.06107000000003 70.29399000000001 -218.21107 77.36399 C -218.34507 83.67999 -216.10507 90.90399 -209.48507 95.11599 C -204.15507 98.50899 -195.67207000000002 97.97599 -190.44807 94.42499 C -185.74507 91.22999 -183.73307 84.89198999999999 -184.90807 79.32898999999999 C -186.08307000000002 73.76498999999998 -190.05107 69.04999 -194.91107 66.09898999999999 C -193.78707 65.38998999999998 -189.14207 65.45798999999998 -185.79107 67.36098999999999 C -181.65407 62.62298999999999 -178.27407 54.29998999999999 -179.99907 46.82698999999999 C -181.80606999999998 39.00398999999999 -187.79807 34.62898999999999 -194.09507 33.443989999999985 z M -168.91707 216.69799 C -174.53906999999998 218.42399 -180.46107 217.57799 -184.08106999999998 216.09099 C -172.55106999999998 214.90599 -163.43006999999997 204.53899 -161.89307 193.04999 C -160.04307 179.21699 -169.52206999999999 170.05499 -181.52907 168.79099000000002 C -193.05606999999998 167.57699000000002 -207.36307 174.85399 -211.86106999999998 185.53699000000003 C -206.49806999999998 187.99399000000003 -201.90906999999999 195.64699000000002 -202.07207 199.41199000000003 C -208.81306999999998 195.06299000000004 -216.48606999999998 191.61799000000002 -224.50707 191.71299000000002 C -232.52807 191.80699 -240.87007 196.14399000000003 -243.82907 203.59999000000002 C -247.25607 212.23899000000003 -242.38807 222.54699000000002 -234.61607 227.64099000000002 C -226.84407000000002 232.73499 -217.66207 231.89099000000002 -208.41207 230.99499000000003 C -211.84607 236.79799000000003 -218.03207 241.78099000000003 -224.72407 242.60699000000002 C -227.44007000000002 248.77199000000002 -225.78207 256.58699 -220.79607000000001 261.11799 C -215.81007000000002 265.64899 -207.87107 266.55299 -201.99407000000002 263.26099 C -196.11707 259.96799 -192.42907000000002 253.31099 -192.50307000000004 246.04299 C -183.71107000000003 250.54599000000002 -171.42507000000003 250.95799 -164.12207000000004 244.30599 C -160.07407000000003 240.61799000000002 -156.27907000000005 233.89599 -157.35707000000005 227.71799000000001 C -158.30007000000006 222.32199000000003 -163.48707000000005 217.40899000000002 -168.91707000000005 216.69799 z M 15.47193 -146.94401 C 15.47193 -146.94401 15.45593 -146.95801 15.45193 -146.96101 C 15.457930000000001 -146.94901 15.46293 -146.93701 15.46793 -146.92501 z M -16.45607 94.53399 C -15.24107 94.66399 -14.237070000000001 95.13899 -13.55407 96.08599000000001 C -14.16207 95.02899000000001 -14.747069999999999 93.96199000000001 -15.29407 92.87699 C -15.67307 93.43599 -16.06007 93.98699 -16.45607 94.53399 z M -10.61207 84.41799 C -1.1710699999999985 101.96299 17.862930000000002 114.20299 37.67693 116.29899 C 57.49093 118.39599 78.11493 110.14799000000001 91.01893 94.96699000000001 C 102.30793 81.68699000000001 107.40793 63.43099000000001 104.98593 46.20199000000001 C 98.14493 57.77799000000001 85.73093 66.02099000000001 72.32992999999999 67.49199000000002 C 84.60793 61.28999000000002 94.54692999999999 50.58299000000002 99.81992999999999 37.87799000000001 C 105.09192999999999 25.172990000000013 105.65592999999998 10.573990000000013 101.37892999999998 -2.4990099999999913 C 110.20392999999999 8.53499000000001 112.97792999999999 24.04499000000001 108.81592999999998 37.51499000000001 C 126.75792999999999 31.814990000000012 142.35192999999998 15.653990000000011 149.81293 -1.4820099999999883 C 158.00493 -20.29600999999999 154.95892999999998 -43.925009999999986 141.04292999999998 -59.00700999999999 C 127.12892999999998 -74.08900999999999 102.66393 -78.81600999999999 84.83192999999999 -68.66200999999998 C 92.31092999999998 -76.56500999999999 99.30492999999998 -82.05300999999999 110.14092999999998 -83.03400999999998 C 113.36892999999998 -100.34200999999999 107.48892999999998 -120.52100999999999 94.53192999999999 -132.44000999999997 C 81.57392999999999 -144.35900999999998 62.340929999999986 -149.02300999999997 45.36192999999999 -144.36500999999998 C 28.383929999999985 -139.70601 14.224929999999986 -125.87900999999998 9.164929999999984 -109.01500999999999 C 9.165929999999983 -114.39401 9.408929999999984 -121.22400999999999 8.404929999999984 -126.50900999999999 C 4.031929999999984 -149.54701 -13.141070000000015 -169.90600999999998 -35.372070000000015 -177.36500999999998 C -57.60307000000002 -184.82401 -83.99907000000002 -178.68301 -100.10907 -161.64400999999998 C -116.21907 -144.60501 -120.76707 -116.11000999999999 -110.41207 -95.07000999999998 C -103.38507 -94.70000999999998 -97.83707 -93.03600999999998 -93.58107 -90.19200999999998 C -110.75607 -90.53300999999998 -128.87306999999998 -80.13400999999999 -140.73907 -67.71300999999998 C -152.60607 -55.291009999999986 -158.44707 -37.08200999999998 -155.01606999999998 -20.249009999999984 C -151.58407 -3.416009999999986 -138.57406999999998 11.357990000000015 -122.02006999999998 15.949990000000014 C -117.43706999999998 10.720990000000015 -111.58206999999997 7.502990000000015 -104.96406999999998 5.958990000000014 C -108.82606999999997 -10.421009999999985 -102.42806999999998 -28.782009999999985 -89.20006999999998 -39.19200999999999 C -97.78606999999998 -26.662009999999988 -100.76606999999998 -10.43700999999999 -97.19306999999998 4.326990000000009 C -93.62006999999998 19.09099000000001 -83.54906999999997 32.15699000000001 -70.18306999999997 39.37199000000001 C -86.17306999999997 36.26799000000001 -99.88006999999998 23.61699000000001 -104.42606999999998 8.003990000000012 C -120.61106999999998 22.753990000000012 -125.02206999999999 49.00299000000001 -117.62206999999998 69.81199000000001 C -109.73606999999998 91.98799000000001 -86.43306999999999 107.66599000000001 -62.92006999999998 106.61599000000001 C -39.407069999999976 105.56499000000001 -17.59506999999998 87.87099 -11.718069999999983 65.07999000000001 C -9.070069999999983 71.80999000000001 -8.681069999999984 77.44499 -10.612069999999983 84.41799 z M -13.08807 96.89999 C -12.91607 97.29999000000001 -12.65507 97.72299 -12.31007 98.16599000000001 C -12.57607 97.74099000000001 -12.84107 97.31499000000001 -13.09607 96.88599 C -13.093069999999999 96.88999000000001 -13.090069999999999 96.89499 -13.08807 96.89999 z" stroke-linecap="round" />
</g>
</svg>