<?xml version="1.0" encoding="UTF-8" standalone="no" ?>
<!DOCTYPE svg PUBLIC "-//W3C//DTD SVG 1.1//EN" "http://www.w3.org/Graphics/SVG/1.1/DTD/svg11.dtd">
<svg xmlns="http://www.w3.org/2000/svg" xmlns:xlink="http://www.w3.org/1999/xlink" version="1.1" width="90" height="90" viewBox="0 0 90 90" xml:space="preserve">
<desc>Created with Fabric.js 4.6.0</desc>
<defs>
</defs>
<g transform="matrix(0.99 0 0 0.98 45 45)" id="yiOJKxXvGJbNKhf3NQTrm"  >
<g style="" vector-effect="non-scaling-stroke"   >
		<g transform="matrix(0.15 0 0 0.16 -0.03 2.93)" id="6GLp264q8LNUbqmdLa5Ar"  >
<path style="stroke: none; stroke-width: 1; stroke-dasharray: none; stroke-linecap: butt; stroke-dashoffset: 0; stroke-linejoin: miter; stroke-miterlimit: 4; fill: rgb(75,181,251); fill-rule: nonzero; opacity: 1;" vector-effect="non-scaling-stroke"  transform=" translate(0, 0)" d="M -171.35672 62.84898 C -169.81271999999998 69.86998 -172.07272 77.96598 -177.10672 83.54398 C -184.57471999999999 91.81798 -197.99172 93.17998 -207.70472 87.71098 C -218.93772 81.38598 -222.22872 70.41998000000001 -220.79372 59.65198000000001 C -219.69872 67.14398000000001 -215.72972000000001 74.03398000000001 -207.70472 78.55298 C -197.99172000000002 84.02198 -184.57472 82.65998 -177.10672 74.38598 C -174.18972 71.15398 -172.21472 67.07298 -171.35672 62.848980000000005 z M -220.69472 49.71198 C -229.31671999999998 53.895979999999994 -240.77172 49.38498 -245.02071999999998 40.794979999999995 C -245.69871999999998 39.42397999999999 -246.17772 37.98197999999999 -246.50572 36.507979999999996 C -247.46072 41.032979999999995 -247.07572 45.797979999999995 -245.02071999999998 49.95198 C -240.80172 58.48098 -229.47972 62.97798 -220.88072 58.94598 C -221.24872 55.91798 -221.17272 52.80298 -220.69472 49.71198 z M -166.04472 28.65098 C -167.79272 35.388980000000004 -170.25472000000002 40.263980000000004 -176.37972000000002 44.668980000000005 C -174.61172000000002 46.32198 -173.31872 48.27998 -172.41572000000002 50.399980000000006 C -169.06472000000002 46.857980000000005 -167.35372 42.85598000000001 -166.04472 37.80798000000001 C -165.16872 34.433980000000005 -165.15872000000002 31.065980000000007 -165.86372 27.844980000000007 C -165.92272 28.112980000000007 -165.97372000000001 28.381980000000006 -166.04472 28.650980000000008 z M -131.98872 0.54298 C -144.19772 -5.25102 -154.18172 -15.16302 -160.70372 -26.98002 C -159.45772 -9.118020000000001 -150.47572 8.13898 -136.72472 19.60598 C -135.94271999999998 12.980979999999999 -134.34972 6.5149799999999995 -131.98872 0.54298 z M 137.93328 -99.40702 C 137.37328 -108.83202 134.64728 -118.24002 129.73028 -126.63302 C 130.19428 -118.44002 129.03127999999998 -110.24002 126.23728 -102.69602 C 130.26628 -102.04802000000001 134.17928 -100.92202 137.93328 -99.40702 z M 184.47728 -16.79002 C 184.44228 -27.02302 181.40128 -37.01902 176.21828 -45.79902 C 176.23728 -45.25902 176.26228 -44.72002 176.26427999999999 -44.17902 C 176.36228 -16.26902 152.40828 10.943979999999996 124.88427999999999 15.571979999999996 C 131.22928 38.568979999999996 125.37427999999998 64.56598 109.78428 82.62398 C 94.19528 100.68198000000001 69.33027999999999 110.26698 45.65428 107.34598 C 21.97728 104.42497999999999 -0.808720000000001 88.39098 -11.541719999999998 67.08598 C -24.189719999999998 85.75698 -46.40472 97.55698000000001 -68.95671999999999 97.58398000000001 C -91.50871999999998 97.60998000000001 -113.75071999999999 85.86198000000002 -126.44271999999998 67.22198000000002 C -127.26171999999998 66.01798000000002 -128.03171999999998 64.77798000000001 -128.75571999999997 63.50698000000001 C -127.75571999999997 74.74598000000002 -124.32971999999997 85.65198000000001 -118.23071999999996 94.61098000000001 C -105.53871999999996 113.25298000000001 -83.29571999999996 124.99998000000001 -60.744719999999965 124.97298 C -38.192719999999966 124.94698000000001 -15.977719999999962 113.14598000000001 -3.3297199999999663 94.47498 C 7.403280000000034 115.77998 30.189280000000032 131.81398000000002 53.86628000000003 134.73498 C 77.54228000000003 137.65598 102.40728000000003 128.07098000000002 117.99728000000003 110.01398 C 133.58628000000004 91.95498 139.44028000000003 65.95798 133.09628000000004 42.96198 C 160.62028000000004 38.33298 184.57528000000002 11.120979999999996 184.47728000000004 -16.790020000000005 z M 282.90228 -22.84502 C 281.93728000000004 -19.683020000000003 280.38128 -16.669020000000003 278.42628 -14.012020000000001 C 274.01228000000003 -8.013020000000001 267.50428 -4.209020000000001 260.06128 -4.471020000000001 C 253.49628 -4.7010200000000015 248.49928 -5.971020000000001 243.18828000000002 -10.71202 C 237.83928000000003 -1.6530200000000015 224.81228000000002 -0.109020000000001 215.65928000000002 -5.295020000000001 C 210.57128000000003 -8.17702 207.08128000000002 -13.19302 205.50328000000002 -18.80702 C 202.56228000000002 -8.778020000000001 206.56428000000002 3.182979999999997 215.65928000000002 8.33598 C 224.81228000000002 13.52198 237.84028000000004 11.977979999999999 243.18828000000002 2.917979999999999 C 248.50028000000003 7.658979999999999 253.49628 8.929979999999999 260.06128 9.15998 C 267.50428 9.420979999999998 274.01228000000003 5.616979999999999 278.42628 -0.38102000000000125 C 282.67528000000004 -6.154020000000001 285.06928 -13.611020000000002 283.51428000000004 -20.61002 C 283.33728 -21.39902 283.12828 -22.13602 282.90228 -22.845019999999998 z M -10.47672 167.34798 C -11.55072 165.04798 -12.29672 162.59298 -12.72672 160.07098000000002 C -13.26572 163.25098000000003 -13.28872 166.48198000000002 -12.79072 169.61398000000003 C -12.04872 168.77898000000002 -11.27072 168.02598000000003 -10.47672 167.34798000000004 z M 61.90428 190.06698 C 60.47028 196.55098 56.19628 202.38498 49.06128 204.89898 C 44.27628 206.58498 37.78228 206.61198 30.786279999999998 204.46998 C 22.549279999999996 212.26198 10.034279999999999 213.45798 -0.5227200000000032 209.31998 C -9.527720000000004 205.78997999999999 -16.07072 198.65998 -17.836720000000003 189.60397999999998 C -18.154720000000005 191.16497999999999 -18.336720000000003 192.83997999999997 -18.328720000000004 194.65097999999998 C -18.276720000000005 205.98997999999997 -11.078720000000004 215.06498 -0.5227200000000032 219.20397999999997 C 10.034279999999997 223.34197999999998 22.54828 222.14597999999998 30.786279999999998 214.35397999999998 C 37.78228 216.49597999999997 44.27628 216.46797999999998 49.06128 214.78297999999998 C 59.58727999999999 211.07397999999998 63.91028 200.14297999999997 62.02328 190.55198 C 61.99128 190.38798 61.94028 190.22997999999998 61.90428 190.06697999999997 z M -156.92272 184.23298 C -152.96072 186.32998 -149.49272 189.51798 -147.08472 193.23998 C -140.54872 184.07898 -140.11672000000002 170.11198000000002 -146.34172 160.75498 C -147.08572 159.63698 -147.92172000000002 158.59498 -148.80772000000002 157.60198 C -146.98672000000002 167.17398 -149.78472000000002 177.95098 -156.92272000000003 184.23298 z M -230.63672 214.29198 C -236.54572 212.92998 -241.90672 209.53698 -245.86272 204.94898 C -245.69072 205.84698 -245.48872 206.74198 -245.22372 207.62098 C -243.25372 214.17398 -238.75771999999998 219.87098 -232.99471999999997 223.53998 C -232.69771999999998 220.26598 -231.90471999999997 217.08198000000002 -230.63671999999997 214.29198000000002 z M -143.70672 202.41398 C -143.66371999999998 202.82298 -143.62671999999998 203.23198000000002 -143.61172 203.64298000000002 C -143.28572 213.27198 -148.28472 222.91398000000004 -156.34171999999998 228.19498000000002 C -164.40071999999998 233.47598000000002 -174.74971999999997 235.10898 -183.44771999999998 230.96698 C -185.17371999999997 240.36598 -192.65471999999997 248.46198 -201.88871999999998 250.92098000000001 C -210.45072 253.20298000000003 -220.10971999999998 250.52498000000003 -226.39171999999996 244.30898000000002 C -225.69971999999996 248.58698 -224.09471999999997 252.61898000000002 -221.47571999999997 255.71198 C -215.30271999999997 263.00798000000003 -204.78671999999997 266.30798 -195.55171999999996 263.84798 C -186.31671999999998 261.38798 -178.83571999999995 253.29298 -177.11071999999996 243.89398 C -168.41171999999995 248.03498 -158.06171999999995 246.40297999999999 -150.00371999999996 241.12198 C -141.94571999999997 235.84098 -136.94671999999997 226.19898 -137.27371999999997 216.56998000000002 C -137.44971999999996 211.41898 -139.94871999999998 206.37898 -143.70671999999996 202.41398 z M -161.66272 -212.65502 C -169.18872000000002 -202.40302 -185.46172 -196.26202 -198.07772 -197.87902 C -197.63572 -185.96502 -207.38172 -175.61502 -218.50372 -171.32301999999999 C -231.00572 -166.49901999999997 -245.71272 -167.80702 -257.16672 -174.76402 C -268.61972 -181.72001999999998 -276.56272 -194.16701999999998 -278.04672 -207.48402 C -287.56972 -211.23301999999998 -296.11872 -221.54901999999998 -298.79872 -231.65601999999998 C -299.90972 -227.16902 -300.10672 -222.46002 -299.23972 -217.91601999999997 C -297.20171999999997 -207.22601999999998 -288.17271999999997 -195.81401999999997 -278.04571999999996 -191.82801999999998 C -276.56172 -178.51101999999997 -268.61871999999994 -166.06302 -257.16571999999996 -159.10701999999998 C -245.71171999999996 -152.15102 -231.00471999999996 -150.84202 -218.50271999999995 -155.66701999999998 C -207.38071999999994 -159.95901999999998 -197.63471999999996 -170.30901999999998 -198.07671999999997 -182.22202 C -185.46171999999996 -180.60601999999997 -169.18871999999996 -186.74602 -161.66171999999997 -196.99901999999997 C -155.59771999999998 -205.25901999999996 -153.48171999999997 -216.20401999999996 -155.66971999999998 -226.18701999999996 C -156.71372 -221.32201999999995 -158.71471999999997 -216.67001999999997 -161.66271999999998 -212.65501999999995 z M 192.36328 -189.48002 C 184.31928 -190.95702 177.37028 -197.20902 174.96728000000002 -205.01502 C 173.83128000000002 -201.12001999999998 173.68928000000002 -196.93802 174.73428 -193.01402 C 176.74228000000002 -185.47902 182.99928 -179.27602 190.48528000000002 -177.16902 C 189.97128 -181.34702 190.51428 -185.59902 192.36328 -189.48002 z M 277.57328 -180.46302 C 276.05728 -173.16002 272.00428 -166.41602 265.81128 -162.29702 C 256.25228 -155.93702 241.23528000000002 -157.42602 233.65028 -166.04602 C 230.21228000000002 -159.54702 223.46328 -154.52402 216.50228 -154.28701999999998 C 207.99528 -153.99901999999997 199.47828 -158.41501999999997 194.81228000000002 -165.53402 C 193.17628000000002 -168.03002 191.94828 -170.77802 191.18528 -173.62102 C 189.14528 -166.66601999999997 190.76028 -158.95901999999998 194.81228000000002 -152.77602 C 199.47828 -145.65702 207.99628 -141.24102 216.50228 -141.53001999999998 C 223.46428 -141.76601999999997 230.21228000000002 -146.79001999999997 233.65028 -153.28902 C 241.23528000000002 -144.66902 256.25328 -143.18001999999998 265.81128 -149.53902 C 275.37228 -155.89902 279.87328 -168.50502 277.72528 -179.78402 C 277.68228 -180.01302 277.62028 -180.23602 277.57328 -180.46302 z M 73.98728 -211.23302 C 64.36028 -200.27802 49.08928 -199.78002 36.45728 -208.71802000000002 C 28.420279999999998 -214.40602 22.882279999999998 -222.26502000000002 21.720279999999995 -231.39602000000002 C 20.223279999999995 -219.20302 26.378279999999997 -208.65902000000003 36.45728 -201.52602000000002 C 49.089279999999995 -192.58802000000003 64.36027999999999 -193.08602000000002 73.98728 -204.04102 C 80.45428 -211.39902 82.98428 -220.84202 82.04428 -229.76502 C 81.34728 -223.15202 78.73128 -216.63101999999998 73.98728 -211.23301999999998 z M 21.86728 -239.78402 C 9.274280000000001 -240.53602 -2.7187199999999976 -250.69201999999999 -5.15372 -263.07002 C -5.25772 -263.59402 -5.32872 -264.12402 -5.39972 -264.65402 C -5.79572 -261.73902 -5.719720000000001 -258.75802 -5.15372 -255.87802 C -2.73872 -243.59502 9.09028 -233.51202 21.57628 -232.62202 C 21.38528 -234.93702 21.46628 -237.32801999999998 21.86728 -239.78402 z M 79.13228 -247.58502 C 79.93728 -245.86201999999997 80.57028 -244.05901999999998 81.06627999999999 -242.21401999999998 C 85.05228 -246.33801999999997 88.30127999999999 -252.33002 88.26227999999999 -260.64401999999995 C 88.25627999999999 -261.80301999999995 88.16427999999999 -262.93301999999994 88.03428 -264.04801999999995 C 87.09328 -256.46901999999994 83.28528 -251.12501999999995 79.13228 -247.58501999999996 z M 274.26628 191.52998 C 266.62428 198.75198 254.96728 201.41598 244.94728 198.22997999999998 C 234.92728 195.04397999999998 225.81528 183.91997999999998 223.74528 173.61097999999998 C 214.53028 177.10698 203.84628 172.20798 197.54428000000001 164.62998 C 192.94428000000002 159.10098 190.13928 152.15797999999998 189.38928 145.01098 C 187.37428000000003 155.53498 190.26228 166.91098 197.11728000000002 175.15498 C 203.42028000000002 182.73298 214.10428000000002 187.63198 223.31928000000002 184.13598 C 225.38828 194.44598 234.50128 205.56998 244.52128000000002 208.75498 C 254.54228 211.94098 266.19928000000004 209.27597999999998 273.84028 202.05498 C 280.71828 195.55598 284.07728000000003 185.60398 282.77828 176.25398 C 281.50527999999997 182.03598000000002 278.57328 187.46098 274.26628 191.52998000000002 z M 297.83428 150.54498 C 295.23828 156.83798000000002 289.33027999999996 161.53798 282.61127999999997 162.63598000000002 C 283.47328 165.99498000000003 283.67727999999994 169.49498000000003 283.30728 172.93898000000002 C 289.55428 171.52598 294.95628 167.00998 297.40728 161.07098000000002 C 299.50628 155.98298000000003 300.18928 150.36298000000002 299.54928 144.89998000000003 C 299.15528 146.82798000000003 298.58628 148.72198000000003 297.83428000000004 150.54498000000004 z" stroke-linecap="round" />
</g>
		<g transform="matrix(0.15 0 0 0.16 0 -1.03)" id="R-vNjfp9DK3WJ0mjY5TCJ"  >
<path style="stroke: none; stroke-width: 1; stroke-dasharray: none; stroke-linecap: butt; stroke-dashoffset: 0; stroke-linejoin: miter; stroke-miterlimit: 4; fill: rgb(71,76,78); fill-rule: nonzero; opacity: 1;" vector-effect="non-scaling-stroke"  transform=" translate(-299.78, -293.54)" d="M 372.595 126.591 C 384.61800000000005 119.684 400.473 120.07 412.14700000000005 127.55199999999999 C 423.82000000000005 135.034 430.79100000000005 149.28 429.535 163.089 C 425.37600000000003 151.718 417.408 141.779 407.216 135.245 C 397.022 128.713 384.663 125.623 372.595 126.591 z M 378.702 70.743 C 384.008 82.113 382.698 96.691 373.556 107.095 C 363.928 118.05 348.657 118.548 336.025 109.61 C 325.61699999999996 102.245 319.36699999999996 91.247 321.43399999999997 78.545 C 308.842 77.792 296.849 67.636 294.414 55.258 C 292.221 44.108000000000004 297.245 31.399 309.48199999999997 27.088 C 315.04499999999996 25.128 322.59599999999995 25.096 330.729 27.586000000000002 C 340.306 18.527 354.85499999999996 17.137 367.128 21.948 C 379.4 26.759 387.769 37.31 387.829 50.492000000000004 C 387.876 60.12 383.516 66.64 378.702 70.743 z M 377.451 76.333 C 375.785 69.667 380.117 66 383.117 52 C 386.117 38 373.384 25.109 362.451 23.315 C 351.51800000000003 21.521 343.784 24 336.117 30.333 C 328.45000000000005 36.666 325.83700000000005 26.375 312.117 30.333 C 298.397 34.291 299.784 47 299.784 47 C 299.784 47 298.117 52 299.569 61 C 301.021 70 314.451 72 321.117 74 C 327.783 76 325.117 86.667 327.451 97 C 329.785 107.333 353.784 112.667 364.451 108.667 C 375.11800000000005 104.667 379.117 83 377.451 76.333 z M 377.451 76.333 C 379.117 83 375.118 104.666 364.451 108.666 C 353.78400000000005 112.666 329.785 107.332 327.451 96.999 C 325.117 86.666 327.783 75.999 321.117 73.999 C 314.451 71.999 301.02000000000004 69.999 299.569 60.998999999999995 C 298.118 51.998999999999995 299.784 46.998999999999995 299.784 46.998999999999995 C 299.784 46.998999999999995 298.397 34.28999999999999 312.117 30.331999999999994 C 325.83700000000005 26.373999999999995 328.45000000000005 36.66499999999999 336.117 30.331999999999994 C 343.784 23.998999999999995 351.51800000000003 21.519999999999996 362.451 23.313999999999993 C 373.384 25.10799999999999 386.117 38 383.117 52 C 380.117 66 375.785 69.667 377.451 76.333 z M 370.745 68.49 C 378.504 65.1 382.597 56.107 381.395 47.724999999999994 C 379.998 37.97299999999999 369.25399999999996 30.364999999999995 358.676 28.125999999999994 C 346.542 25.557999999999993 337.848 29.101999999999993 332.817 37.044999999999995 C 326.54900000000004 31.363999999999994 316.236 30.817999999999994 309.40500000000003 35.80499999999999 C 302.57300000000004 40.791999999999994 299.951 50.782 303.45200000000006 58.480999999999995 C 306.95400000000006 66.181 316.2060000000001 70.77099999999999 324.45500000000004 68.89999999999999 C 327.44300000000004 61.94499999999999 335.12300000000005 55.91999999999999 342.50100000000003 54.22599999999999 C 334.33900000000006 59.57399999999999 327.62 71.97699999999999 328.56000000000006 81.69 C 329.4990000000001 91.402 336.6170000000001 99.37899999999999 345.19500000000005 104.03 C 351.20500000000004 107.287 358.58900000000006 107.123 364.16800000000006 103.513 C 369.39400000000006 100.131 372.34100000000007 92.95700000000001 373.26000000000005 86.80000000000001 C 374.178 80.646 372.831 74.355 370.745 68.49 z M 565.38 156.031 C 555.821 162.39100000000002 540.804 160.90200000000002 533.219 152.282 C 529.7810000000001 158.781 523.032 163.804 516.071 164.041 C 507.564 164.329 499.047 159.913 494.38100000000003 152.79399999999998 C 489.71500000000003 145.67499999999995 488.274 136.53199999999998 491.93300000000005 128.84699999999998 C 483.6290000000001 127.32299999999998 476.47700000000003 120.71399999999998 474.30300000000005 112.55499999999998 C 472.13000000000005 104.39699999999998 475.04600000000005 95.10599999999998 481.49100000000004 89.65199999999999 C 487.93600000000004 84.19899999999998 498.97900000000004 83.66499999999999 506.665 87.15899999999999 C 508.65200000000004 78.53999999999999 515.509 71.22 523.9780000000001 68.67399999999999 C 532.4480000000001 66.127 542.2040000000001 68.45299999999999 548.614 74.54799999999999 C 555.024 80.64299999999999 558.899 90.999 556.784 99.58699999999999 C 566.994 104.83999999999999 575.149 114.50699999999999 577.296 125.78699999999999 C 579.441 137.066 574.94 149.672 565.38 156.031 z M 554.852 107.063 C 552.68 111.801 545.919 115.855 542.593 115.71000000000001 C 546.4359999999999 109.75500000000001 549.4789999999999 102.977 549.396 95.89000000000001 C 549.312 88.80400000000002 545.482 81.43400000000001 538.894 78.82100000000001 C 531.263 75.79400000000001 522.156 80.09400000000001 517.656 86.96000000000001 C 513.156 93.82600000000001 513.901 101.93900000000001 514.693 110.10900000000001 C 509.566 107.075 505.164 101.61000000000001 504.435 95.69800000000001 C 498.988 93.299 492.083 94.76400000000001 488.081 99.16900000000001 C 484.07800000000003 103.57400000000001 483.279 110.58700000000002 486.18800000000005 115.77900000000001 C 489.09700000000004 120.971 494.97700000000003 124.22900000000001 501.398 124.16400000000002 C 497.42 131.931 497.05600000000004 142.78500000000003 502.93300000000005 149.23600000000002 C 506.19100000000003 152.812 512.129 156.16500000000002 517.5870000000001 155.21300000000002 C 522.3530000000001 154.38100000000003 526.6930000000001 149.79800000000003 527.3210000000001 145.002 C 525.7970000000001 140.035 526.5450000000002 134.803 527.8570000000001 131.606 C 528.9040000000001 141.792 538.0630000000001 149.851 548.2120000000001 151.208 C 560.4330000000001 152.84199999999998 568.5260000000001 144.468 569.6440000000001 133.861 C 570.718 123.676 564.289 111.037 554.852 107.063 z M 109.432 140.156 C 108.008 139.166 106.534 138.15300000000002 104.899 137.83 C 103.265 137.508 101.413 138.05700000000002 100.658 139.596 C 99.206 142.559 102.494 145.86 105.295 147.649 C 123.01 158.96 140.725 170.27100000000002 158.44 181.583 C 159.573 182.307 160.76 183.049 162.042 183.163 C 163.324 183.27700000000002 164.721 182.547 164.974 181.20000000000002 C 165.313 179.39800000000002 163.60799999999998 177.854 162.125 176.823 C 144.561 164.601 126.996 152.378 109.432 140.156 z M 437.483 203.399 C 439.133 203.734 440.439 202.069 441.295 200.621 C 451.425 183.464 461.55600000000004 166.30700000000002 471.687 149.149 C 472.50800000000004 147.758 473.34700000000004 146.318 473.551 144.72 C 473.756 143.12199999999999 473.15999999999997 141.31 471.727 140.569 C 468.96799999999996 139.14399999999998 466.154 142.35299999999998 464.683 145.08999999999997 C 455.385 162.396 446.087 179.70199999999997 436.789 197.00799999999998 C 436.19399999999996 198.11499999999998 435.585 199.27499999999998 435.55 200.528 C 435.516 201.782 436.25 203.149 437.483 203.399 z M 492.708 76.852 C 484.64500000000004 72.839 474.07300000000004 74.668 467.82800000000003 81.158 C 461.583 87.648 460.16100000000006 98.282 464.48100000000005 106.184 C 465.493 91.483 478.057 78.427 492.708 76.852 z M 447.446 346.716 C 447.58700000000005 347.438 448.30100000000004 349.229 450.814 351.443 C 459.69800000000004 359.27 480.66400000000004 373.84799999999996 486.13 378.152 C 488.158 379.74899999999997 490.822 381.42699999999996 493.129 380.26599999999996 C 495.24 379.203 495.65500000000003 376.17499999999995 494.62100000000004 374.049 C 493.586 371.92199999999997 491.54900000000004 370.49399999999997 489.59700000000004 369.162 C 478.02500000000003 361.26399999999995 466.45200000000006 353.364 454.88100000000003 345.46599999999995 C 452.644 343.938 446.484 341.796 447.446 346.716 z M 532.104 396.164 C 547.399 392.566 564.653 401.687 570.293 416.353 C 572.174 406.914 567.232 396.523 558.724 392.024 C 550.216 387.526 538.847 389.294 532.104 396.164 z M 577.995 304.316 C 573.581 310.315 567.073 314.118 559.63 313.85699999999997 C 553.0649999999999 313.62699999999995 548.068 312.35699999999997 542.757 307.616 C 537.4069999999999 316.675 524.381 318.219 515.228 313.03299999999996 C 506.07499999999993 307.8469999999999 502.07199999999995 295.765 505.12199999999996 285.69699999999995 C 508.73299999999995 273.7699999999999 518.535 268.50899999999996 529.0329999999999 267.82099999999997 C 523.4119999999999 260.73499999999996 525.2219999999999 249.25699999999998 532.2649999999999 243.58299999999997 C 539.3069999999999 237.90899999999996 550.2129999999999 238.22299999999996 557.4819999999999 243.60599999999997 C 564.7499999999999 248.98899999999998 568.2269999999999 259.832 567.0119999999998 268.794 C 573.2899999999998 270.269 580.6749999999998 273.25899999999996 583.0829999999999 284.08799999999997 C 584.639 291.085 582.244 298.543 577.995 304.316 z M 573.998 287.171 C 573.6690000000001 277.162 566.5680000000001 274.656 559.851 273.831 C 561.608 268.583 561.714 262.64300000000003 559.35 257.639 C 556.986 252.63600000000002 551.929 248.792 546.397 248.63400000000001 C 540.758 248.473 534.797 252.09500000000003 533.0880000000001 257.53000000000003 C 532.2450000000001 260.21200000000005 533.089 265.384 535.6 269.48100000000005 C 538.865 270.6460000000001 544.195 272.78000000000003 546.088 276.749 C 540.343 273.80800000000005 535.1379999999999 272.63800000000003 528.593 273.94800000000004 C 522.746 275.11800000000005 516.55 278.66100000000006 514.026 285.62300000000005 C 511.99299999999994 291.22800000000007 514.2199999999999 298.934 518.5619999999999 303.02000000000004 C 522.4699999999999 306.69800000000004 528.7199999999999 307.254 533.6049999999999 305.03200000000004 C 538.4909999999999 302.81100000000004 542.0229999999999 298.189 543.7459999999999 293.10600000000005 C 544.6289999999999 293.99600000000004 545.5169999999998 298.2900000000001 544.4509999999999 301.76700000000005 C 549.6639999999999 304.60800000000006 558.0229999999999 306.01700000000005 564.5559999999999 302.89700000000005 C 571.393 299.631 574.196 293.215 573.998 287.171 z M 490.899 169.964 C 489.926 168.254 486.913 167.933 484.737 168.786 C 482.562 169.639 481.043 171.302 479.622 172.897 C 471.199 182.34799999999998 462.77700000000004 191.79899999999998 454.35400000000004 201.249 C 452.72600000000006 203.076 450.309 208.095 455.278 207.286 C 456.00800000000004 207.167 457.833 206.576 460.161 204.52100000000002 C 468.39300000000003 197.25600000000003 483.92 180.132 488.472 175.66500000000002 C 490.161 174.007 491.96 171.832 490.899 169.964 z M 212.656 423.376 C 210.50300000000001 422.93399999999997 208.802 425.113 207.69 427.00899999999996 C 194.512 449.47299999999996 181.334 471.93699999999995 168.156 494.40099999999995 C 167.088 496.22099999999995 165.997 498.10699999999997 165.733 500.20199999999994 C 165.47 502.29599999999994 166.251 504.67299999999994 168.124 505.64599999999996 C 171.728 507.52 175.392 503.32099999999997 177.304 499.73699999999997 C 189.395 477.07699999999994 201.487 454.41599999999994 213.578 431.755 C 214.351 430.306 215.144 428.787 215.186 427.145 C 215.228 425.503 214.266 423.707 212.656 423.376 z M 348.63 523.227 C 343.846 524.913 337.351 524.9399999999999 330.355 522.799 C 322.119 530.59 309.603 531.785 299.046 527.648 C 288.489 523.5110000000001 281.292 514.434 281.24 503.095 C 281.201 494.81500000000005 284.952 489.20500000000004 289.093 485.67600000000004 C 284.529 475.89700000000005 285.65500000000003 463.357 293.519 454.408 C 301.8 444.98400000000004 314.935 444.55600000000004 325.8 452.245 C 334.753 458.58 340.129 468.04 338.351 478.966 C 349.183 479.613 359.498 488.349 361.592 498.996 C 363.479 508.587 359.156 519.519 348.63 523.227 z M 353.892 495.435 C 350.935 488.931 343.11899999999997 485.053 336.151 486.633 C 333.627 492.50899999999996 327.139 497.59999999999997 320.906 499.029 C 327.802 494.511 333.47700000000003 484.033 332.683 475.828 C 331.889 467.62399999999997 325.877 460.88599999999997 318.63 456.957 C 313.555 454.205 307.317 454.344 302.605 457.394 C 298.19 460.25 295.701 466.311 294.92400000000004 471.512 C 294.148 476.711 295.28600000000006 482.027 297.04800000000006 486.981 C 290.4940000000001 489.84499999999997 287.03600000000006 497.442 288.05100000000004 504.522 C 289.232 512.76 298.307 519.188 307.242 521.079 C 317.492 523.2479999999999 324.836 520.255 329.088 513.544 C 334.38100000000003 518.343 343.09400000000005 518.804 348.86400000000003 514.591 C 354.634 510.37800000000004 356.85 501.938 353.892 495.435 z M 170.505 459.189 C 178.816 447.55100000000004 187.126 435.91400000000004 195.43699999999998 424.27700000000004 C 197.04399999999998 422.02700000000004 199.36399999999998 415.78800000000007 194.32299999999998 416.66200000000003 C 193.58299999999997 416.79100000000005 191.73999999999998 417.482 189.427 419.99800000000005 C 181.24699999999999 428.89400000000006 165.918 449.97200000000004 161.40699999999998 455.45700000000005 C 159.73399999999998 457.4920000000001 157.96399999999997 460.17500000000007 159.09799999999998 462.55300000000005 C 160.13699999999997 464.73100000000005 163.21699999999998 465.21900000000005 165.41 464.21000000000004 C 167.601 463.2 169.102 461.152 170.505 459.189 z M 597.403 468.874 C 594.807 475.166 588.899 479.86600000000004 582.181 480.964 C 584.7950000000001 491.149 581.4770000000001 502.636 573.8340000000001 509.858 C 566.192 517.081 554.5350000000001 519.745 544.5160000000001 516.559 C 534.4950000000001 513.3729999999999 525.3820000000001 502.248 523.3130000000001 491.93999999999994 C 514.0980000000001 495.43499999999995 503.4140000000001 490.5369999999999 497.1120000000001 482.95899999999995 C 490.0280000000001 474.4409999999999 487.1650000000001 462.57399999999996 489.58600000000007 451.7629999999999 C 492.00700000000006 440.95199999999994 499.6580000000001 431.43999999999994 509.6980000000001 426.75699999999995 C 510.1430000000001 417.7699999999999 516.6960000000001 407.67999999999995 524.5310000000001 403.25699999999995 C 532.3670000000001 398.83399999999995 542.4720000000001 398.73199999999997 550.3960000000001 402.99299999999994 C 558.321 407.2559999999999 564.1970000000001 416.9939999999999 566.6400000000001 425.26399999999995 C 577.3810000000001 425.01699999999994 588.0830000000001 429.25899999999996 594.1610000000001 438.11899999999997 C 600.239 446.979 601.501 458.941 597.403 468.874 z M 591.183 445.568 C 584.436 434.957 566.954 427.336 554.927 431.043 C 556.245 429.088 558.6170000000001 428.815 561.495 427.039 C 560.07 422.912 557.769 418.158 554.759 414.354 C 552.8530000000001 411.94599999999997 550.664 409.916 548.226 408.67199999999997 C 547.053 408.07399999999996 545.828 407.58 544.57 407.193 C 539.0790000000001 405.498 532.966 405.835 527.889 408.525 C 521.65 411.832 517.491 419.765 517.743 426.902 C 528.676 428.003 535.2270000000001 435.008 540.2040000000001 444.94599999999997 C 536.321 440.698 531.1120000000001 437.79799999999994 525.551 436.46399999999994 C 519.989 435.1309999999999 513.6400000000001 435.47599999999994 508.85800000000006 438.6499999999999 C 505.07400000000007 441.16099999999994 501.64500000000004 446.76199999999994 500.26900000000006 451.1309999999999 C 498.00000000000006 458.3339999999999 498.92600000000004 466.5959999999999 503.0930000000001 472.8649999999999 C 507.2600000000001 479.1339999999999 514.6880000000001 483.1499999999999 522.1300000000001 482.7399999999999 C 529.5710000000001 482.3309999999999 536.6820000000001 477.3129999999999 539.2790000000001 470.2249999999999 C 540.6460000000001 477.1669999999999 537.7290000000002 484.9879999999999 532.5510000000002 489.7329999999999 C 532.4160000000002 498.8839999999999 539.5560000000002 508.62599999999986 547.9730000000002 510.6819999999999 C 556.3900000000002 512.7379999999999 565.6190000000001 508.8809999999999 571.1000000000001 502.0809999999999 C 577.6270000000002 493.9849999999999 578.9570000000001 481.9429999999999 574.3590000000002 472.5809999999999 C 580.7850000000002 475.7129999999999 588.2050000000002 472.2679999999999 591.9560000000001 466.1169999999999 C 595.7070000000001 459.9659999999999 595.048 451.646 591.183 445.568 z M 491.54 425.355 C 493.392 426.27700000000004 495.84200000000004 426.32500000000005 497.35 424.91 C 500.25100000000003 422.185 497.55600000000004 417.43600000000004 494.863 414.50800000000004 C 477.83 395.98300000000006 460.799 377.45700000000005 443.765 358.932 C 442.675 357.74600000000004 441.529 356.522 440.024 355.951 C 438.519 355.38000000000005 436.548 355.68600000000004 435.72 357.06800000000004 C 434.613 358.915 436.07700000000006 361.194 437.47 362.838 C 453.96700000000004 382.30400000000003 470.46500000000003 401.771 486.96200000000005 421.23600000000005 C 488.3 422.813 489.689 424.433 491.54 425.355 z M 378.632 432.462 C 390.086 436.92199999999997 403.744 435.195 413.729 428.025 C 423.71299999999997 420.856 429.714 408.465 429.14799999999997 396.186 C 419.536 415.497 400.001 429.525 378.632 432.462 z M 154.611 98.647 C 162.71699999999998 90.21000000000001 165.754 77.24100000000001 162.236 66.083 C 158.71699999999998 54.925 148.79 46.043 137.31099999999998 43.782 C 152.666 56.919 159.653 79.08 154.611 98.647 z M 158.852 200.762 C 147.272 197.932 134.62 202.76 126.435 211.425 C 118.25 220.092 114.193 232.073 113.425 243.96800000000002 C 112.657 255.86400000000003 114.942 267.75800000000004 118.081 279.257 C 114.595 248.18 131.424 215.78 158.852 200.762 z M 80.146 469.491 C 86.731 454.137 102.66499999999999 443.262 119.363 442.726 C 110.69 439.36899999999997 100.399 440.554 92.717 445.797 C 85.036 451.04 80.181 460.191 80.146 469.491 z M 130.081 139.319 C 138.96499999999997 147.617 147.849 155.916 156.732 164.214 C 158.449 165.818 163.449 168.46699999999998 163.273 164.12199999999999 C 163.248 163.48399999999998 162.87 161.85399999999998 161.007 159.625 C 154.419 151.742 138.36 136.47899999999998 134.238 132.067 C 132.709 130.431 130.645 128.64000000000001 128.515 129.332 C 126.564 129.96599999999998 125.80899999999998 132.50799999999998 126.41599999999998 134.46699999999998 C 127.02299999999998 136.426 128.582 137.919 130.081 139.319 z M 137.906 105.673 C 130.38 115.925 114.10600000000001 122.066 101.49100000000001 120.449 C 101.933 132.363 92.18700000000001 142.713 81.06500000000001 147.005 C 68.56300000000002 151.829 53.85600000000001 150.521 42.402000000000015 143.564 C 30.948000000000015 136.608 23.006000000000014 124.161 21.522000000000016 110.844 C 11.396 106.857 2.367 95.446 0.328 84.755 C -1.7099999999999997 74.065 2.08 62.443 10.029 55.010999999999996 C 17.979 47.577999999999996 31.412 44.608999999999995 41.836 45.007999999999996 C 45.707 32.602 54.708 21.977999999999994 67.212 18.439999999999994 C 79.71600000000001 14.900999999999994 93.914 18.082999999999995 103.712 26.619999999999994 C 109.92 32.028999999999996 113.02000000000001 40.617999999999995 111.68 48.74099999999999 C 124.363 49.68399999999999 136.245 57.928999999999995 141.566 69.481 C 146.888 81.032 145.433 95.421 137.906 105.673 z M 125.504 71.463 C 119.631 61.26299999999999 107.7 55.562 96.27600000000001 57.495999999999995 C 101.96100000000001 51.324999999999996 101.233 41.736999999999995 96.311 35.354 C 91.39 28.971 82.542 26.814999999999998 74.79 29.064 C 61.257000000000005 32.992 46.71600000000001 50.094 45.95700000000001 64.97999999999999 C 44.44100000000001 62.80899999999999 45.06400000000001 60.03199999999999 44.327000000000005 56.15999999999999 C 36.477000000000004 56.43999999999999 26.005000000000006 58.764999999999986 20.295000000000005 64.75699999999999 C 14.585000000000004 70.74999999999999 11.350000000000005 79.487 12.385000000000005 87.692 C 13.420000000000005 95.89699999999999 20.029000000000003 103.362 27.497000000000007 105.565 C 32.80400000000001 93.591 42.53900000000001 88.627 54.702000000000005 86.466 C 48.83200000000001 89.375 43.85000000000001 94.25099999999999 40.351000000000006 100.07199999999999 C 36.852000000000004 105.89299999999999 34.787000000000006 113.18999999999998 36.24100000000001 119.70199999999998 C 37.39200000000001 124.85399999999998 41.86900000000001 130.68099999999998 45.857000000000006 133.761 C 52.431000000000004 138.83599999999998 61.319 140.66899999999998 69.38400000000001 138.14499999999998 C 77.44900000000001 135.62099999999998 84.42900000000002 128.62499999999997 86.84500000000001 120.07099999999998 C 89.26100000000001 111.51599999999999 86.79 101.73099999999998 80.46000000000001 96.32499999999999 C 88.15200000000002 97.19899999999998 95.117 103.222 98.043 110.72899999999998 C 107.444 114.07099999999998 120.23 109.39599999999999 125.56400000000001 100.59999999999998 C 130.899 91.803 130.436 80.028 125.504 71.463 z M 123.189 362.996 C 131.329 370.611 129.93 384.43899999999996 122.46199999999999 392.715 C 114.99399999999999 400.989 101.57699999999998 402.351 91.86399999999999 396.88199999999995 C 80.35799999999999 390.40299999999996 77.17099999999999 379.0559999999999 78.87299999999999 368.03999999999996 C 70.25099999999999 372.22299999999996 58.79599999999999 367.71299999999997 54.54699999999999 359.123 C 50.29799999999999 350.533 53.13099999999999 339.32599999999996 60.36999999999999 333.04699999999997 C 67.60799999999999 326.768 79.62299999999999 325.664 88.61299999999999 328.98199999999997 C 91.58199999999998 322.827 96.37299999999999 315.878 108.12699999999998 315.878 C 115.72299999999998 315.878 122.88499999999998 320.068 127.87899999999998 325.78999999999996 C 133.06799999999998 331.73499999999996 135.50599999999997 339.34099999999995 133.52399999999997 346.979 C 131.776 353.717 129.314 358.592 123.189 362.996 z M 123.321 339.364 C 121.51599999999999 331.541 115.52499999999999 327.166 109.227 325.981 C 98.799 324.019 94.574 330.787 92.177 337.546 C 87.153 334.522 81.033 333.046 75.31500000000001 334.341 C 69.59700000000002 335.636 64.45800000000001 339.982 63.02200000000001 345.66700000000003 C 61.55900000000001 351.46200000000005 63.93400000000001 358.46000000000004 69.16400000000002 361.478 C 71.74400000000001 362.966 77.28800000000001 363.283 82.10200000000002 361.628 C 84.05800000000002 358.519 87.49200000000002 353.49699999999996 92.03100000000002 352.45099999999996 C 87.66800000000002 357.71599999999995 85.26100000000002 362.83099999999996 85.11100000000002 369.90099999999995 C 84.97700000000002 376.2169999999999 87.21700000000001 383.441 93.83700000000002 387.65299999999996 C 99.16700000000002 391.04599999999994 107.65000000000002 390.513 112.87400000000002 386.962 C 117.57700000000003 383.767 119.58900000000003 377.429 118.41400000000003 371.866 C 117.23900000000003 366.30199999999996 113.27100000000003 361.587 108.41100000000003 358.63599999999997 C 109.53500000000003 357.92699999999996 114.18000000000004 357.99499999999995 117.53100000000003 359.89799999999997 C 121.666 355.16 125.046 346.838 123.321 339.364 z M 155.957 521.972 C 156.283 531.601 151.284 541.2429999999999 143.227 546.524 C 135.168 551.805 124.819 553.438 116.12100000000001 549.296 C 114.39500000000001 558.695 106.91400000000002 566.791 97.68 569.25 C 88.44600000000001 571.711 77.929 568.41 71.756 561.115 C 65.583 553.82 64.979 541.32 68.933 532.62 C 59.178000000000004 530.371 50.891000000000005 522.61 48.00900000000001 513.022 C 45.12700000000001 503.4340000000001 47.75900000000001 492.3910000000001 54.65700000000001 485.13500000000005 C 61.55500000000001 477.879 73.27900000000001 473.4920000000001 83.00000000000001 475.88800000000003 C 88.94500000000002 464.33000000000004 99.88900000000001 455.1 112.656 452.66900000000004 C 125.423 450.23800000000006 139.692 455.33400000000006 146.89100000000002 466.15500000000003 C 154.09000000000003 476.975 152.40400000000002 493.97400000000005 142.64700000000002 502.559 C 150.003 506.453 155.689 514.09 155.957 521.972 z M 145.964 520.254 C 145.023 514.859 139.835 509.946 134.405 509.235 C 128.78300000000002 510.961 122.861 510.115 119.241 508.628 C 130.771 507.443 139.892 497.07599999999996 141.429 485.587 C 143.279 471.75399999999996 133.8 462.592 121.793 461.328 C 110.266 460.114 95.959 467.39099999999996 91.46100000000001 478.07399999999996 C 96.82400000000001 480.53099999999995 101.41300000000001 488.18399999999997 101.25000000000001 491.94899999999996 C 94.50900000000001 487.59999999999997 86.83600000000001 484.155 78.81500000000001 484.24999999999994 C 70.79400000000001 484.34399999999994 62.45200000000001 488.6809999999999 59.49300000000001 496.13699999999994 C 56.06600000000001 504.77599999999995 60.93400000000001 515.084 68.706 520.178 C 76.478 525.272 85.66 524.428 94.91 523.532 C 91.476 529.335 85.28999999999999 534.318 78.598 535.144 C 75.882 541.309 77.53999999999999 549.124 82.526 553.655 C 87.512 558.1859999999999 95.451 559.0899999999999 101.328 555.798 C 107.205 552.505 110.893 545.848 110.819 538.58 C 119.611 543.0830000000001 131.897 543.495 139.2 536.8430000000001 C 143.247 533.154 147.042 526.432 145.964 520.254 z M 290.227 389.422 C 290.097 389.122 289.94 388.86100000000005 289.76899999999995 388.62300000000005 C 289.921 388.889 290.069 389.157 290.227 389.422 z M 264.837 397.947 C 264.837 397.947 212.863 413.079 197.07399999999998 395.973 C 181.28499999999997 378.867 170.1 364.39500000000004 172.07399999999998 350.57800000000003 C 174.04799999999997 336.761 178.653 318.32700000000006 178.653 318.32700000000006 C 178.653 318.32700000000006 160.89 308.8620000000001 151.679 293.5350000000001 C 142.469 278.20900000000006 137.863 247.28800000000007 141.153 240.7090000000001 C 144.44299999999998 234.1300000000001 166.153 213.7350000000001 166.153 213.7350000000001 L 177.995 206.4980000000001 L 184.574 200.5770000000001 C 184.574 200.5770000000001 169.71 143.5110000000001 204.96900000000002 121.63000000000011 C 240.22800000000004 99.74900000000011 267.46900000000005 99.9200000000001 279.31100000000004 110.44600000000011 C 291.064 120.89400000000012 318.367 145.21000000000012 318.77500000000003 145.57400000000013 C 309.63500000000005 123.95300000000013 290.08500000000004 106.77300000000012 267.22200000000004 101.15600000000012 C 240.71200000000005 94.64300000000011 210.93400000000003 103.95900000000012 192.86300000000006 124.42000000000012 C 174.79200000000006 144.8800000000001 169.22600000000006 175.58100000000013 178.96500000000006 201.0830000000001 C 153.39400000000006 207.7830000000001 133.22600000000006 227.8210000000001 130.76100000000005 254.1410000000001 C 128.29700000000005 280.4600000000001 143.69900000000004 307.5370000000001 167.58100000000005 318.8700000000001 C 159.29000000000005 339.84300000000013 160.43500000000006 366.9070000000001 173.12800000000004 385.5480000000001 C 185.82000000000005 404.1900000000001 208.06300000000005 415.9380000000001 230.61400000000003 415.9110000000001 C 252.49100000000004 415.8850000000001 274.05 404.77800000000013 286.867 387.0700000000001 C 279.63 386.299 264.837 397.947 264.837 397.947 z M 424.453 333.9 C 430.798 356.897 424.943 382.894 409.35299999999995 400.952 C 393.76399999999995 419.01 368.89899999999994 428.594 345.22299999999996 425.674 C 323.54999999999995 422.99899999999997 302.631 409.33599999999996 291.01199999999994 390.702 C 290.7459999999999 390.277 290.48099999999994 389.851 290.22599999999994 389.422 C 290.09599999999995 389.122 289.93899999999996 388.86100000000005 289.7679999999999 388.62300000000005 C 289.1599999999999 387.56600000000003 288.57499999999993 386.499 288.0279999999999 385.41400000000004 C 287.6489999999999 385.97300000000007 287.2609999999999 386.52400000000006 286.86599999999993 387.071 C 279.62999999999994 386.29900000000004 264.83699999999993 397.947 264.83699999999993 397.947 C 264.83699999999993 397.947 212.86299999999994 413.079 197.07399999999993 395.973 C 181.2849999999999 378.867 170.09999999999994 364.39500000000004 172.07399999999993 350.57800000000003 C 174.04799999999992 336.761 178.65299999999993 318.32700000000006 178.65299999999993 318.32700000000006 C 178.65299999999993 318.32700000000006 160.88999999999993 308.8620000000001 151.67899999999995 293.5350000000001 C 142.46899999999994 278.20900000000006 137.86299999999994 247.28800000000007 141.15299999999993 240.7090000000001 C 144.44299999999993 234.1300000000001 166.15299999999993 213.7350000000001 166.15299999999993 213.7350000000001 L 177.99499999999995 206.4980000000001 L 184.57399999999996 200.5770000000001 C 184.57399999999996 200.5770000000001 169.70999999999995 143.5110000000001 204.96899999999997 121.63000000000011 C 240.22799999999998 99.74900000000011 267.46899999999994 99.9200000000001 279.311 110.44600000000011 C 291.06399999999996 120.89400000000012 318.36699999999996 145.21000000000012 318.775 145.57400000000013 C 318.78099999999995 145.58600000000013 318.786 145.59800000000013 318.791 145.61000000000013 C 320.242 149.04800000000012 321.44 152.59500000000014 322.336 156.22900000000013 C 345.66200000000003 128.73200000000014 391.016 132.9640000000001 410.55 151.1310000000001 C 428.696 168.00800000000012 433.665 194.41100000000012 425.808 215.6310000000001 C 453.363 220.06700000000012 475.73699999999997 246.2380000000001 475.834 274.14800000000014 C 475.93100000000004 302.05800000000016 451.978 329.271 424.453 333.9 z M 453.134 291.055 C 461.326 272.241 458.28000000000003 248.61200000000002 444.36400000000003 233.53 C 430.45000000000005 218.448 405.985 213.721 388.153 223.875 C 395.632 215.972 402.62600000000003 210.484 413.46200000000005 209.503 C 416.69000000000005 192.195 410.81000000000006 172.016 397.85300000000007 160.09699999999998 C 384.89500000000004 148.17799999999997 365.66200000000003 143.51399999999998 348.68300000000005 148.17199999999997 C 331.70500000000004 152.83099999999996 317.54600000000005 166.65799999999996 312.48600000000005 183.52199999999996 C 312.487 178.14299999999997 312.7300000000001 171.31299999999996 311.72600000000006 166.02799999999996 C 307.35300000000007 142.98999999999995 290.18000000000006 122.63099999999997 267.94900000000007 115.17199999999997 C 245.71800000000007 107.71299999999997 219.32200000000006 113.85399999999997 203.21200000000007 130.89299999999997 C 187.1020000000001 147.93199999999996 182.5540000000001 176.42699999999996 192.90900000000008 197.46699999999998 C 199.93600000000006 197.837 205.48400000000007 199.50099999999998 209.74000000000007 202.34499999999997 C 192.56500000000005 202.00399999999996 174.44800000000006 212.40299999999996 162.58200000000005 224.82399999999996 C 150.71500000000006 237.24599999999995 144.87400000000005 255.45499999999996 148.30500000000006 272.28799999999995 C 151.73700000000005 289.121 164.74700000000007 303.895 181.30100000000007 308.48699999999997 C 185.88400000000007 303.258 191.73900000000006 300.03999999999996 198.35700000000008 298.496 C 194.4950000000001 282.116 200.8930000000001 263.755 214.1210000000001 253.34499999999997 C 205.53500000000008 265.87499999999994 202.5550000000001 282.09999999999997 206.1280000000001 296.864 C 209.7010000000001 311.628 219.7720000000001 324.69399999999996 233.1380000000001 331.909 C 217.14800000000008 328.805 203.4410000000001 316.154 198.8950000000001 300.541 C 182.7100000000001 315.291 178.2990000000001 341.54 185.6990000000001 362.349 C 193.5850000000001 384.525 216.8880000000001 400.203 240.4010000000001 399.153 C 263.9140000000001 398.10200000000003 285.7260000000001 380.408 291.60300000000007 357.617 C 294.2540000000001 364.348 294.64200000000005 369.98400000000004 292.71100000000007 376.957 C 302.15200000000004 394.502 321.1860000000001 406.742 341.00000000000006 408.83799999999997 C 360.8140000000001 410.93499999999995 381.43800000000005 402.68699999999995 394.34200000000004 387.506 C 405.63100000000003 374.226 410.73100000000005 355.96999999999997 408.309 338.741 C 401.468 350.317 389.05400000000003 358.56 375.653 360.031 C 387.93100000000004 353.829 397.87 343.122 403.14300000000003 330.41700000000003 C 408.415 317.71200000000005 408.97900000000004 303.11300000000006 404.70200000000006 290.04 C 413.52700000000004 301.074 416.30100000000004 316.584 412.13900000000007 330.05400000000003 C 430.079 324.352 445.673 308.19 453.134 291.055 z" stroke-linecap="round" />
</g>
		<g transform="matrix(0.15 0 0 0.16 0.53 -1.19)" id="AjzeL39URg231u_7aYdzn"  >
<path style="stroke: none; stroke-width: 1; stroke-dasharray: none; stroke-linecap: butt; stroke-dashoffset: 0; stroke-linejoin: miter; stroke-miterlimit: 4; fill: rgb(255,255,255); fill-rule: nonzero; opacity: 1;" vector-effect="non-scaling-stroke"  transform=" translate(0, 0)" d="M 67.42293 -224.04701 C 69.50892999999999 -218.18201 70.85593 -211.89101 69.93692999999999 -205.73401 C 69.01792999999999 -199.57701 66.07092999999999 -192.40301000000002 60.84492999999999 -189.02101000000002 C 55.26592999999999 -185.41201 47.88192999999999 -185.24701000000002 41.87192999999999 -188.50401000000002 C 33.29392999999999 -193.15501000000003 26.17692999999999 -201.13201000000004 25.23692999999999 -210.84401000000003 C 24.29792999999999 -220.55701000000002 31.01592999999999 -232.96101000000002 39.17792999999999 -238.30801000000002 C 31.79992999999999 -236.61501 24.11992999999999 -230.58901000000003 21.13192999999999 -223.63401000000002 C 12.88292999999999 -221.76301 3.6309299999999887 -226.35301 0.12892999999998978 -234.05301000000003 C -3.3710700000000102 -241.75201000000004 -0.7500700000000102 -251.74201000000002 6.08192999999999 -256.72901 C 12.91292999999999 -261.71601000000004 23.22692999999999 -261.17001 29.493929999999988 -255.48901 C 34.52492999999999 -263.43201 43.21992999999999 -266.97601000000003 55.352929999999986 -264.40801 C 65.93092999999999 -262.16901 76.67392999999998 -254.56100999999998 78.07192999999998 -244.80901 C 79.27492999999998 -236.43001 75.18192999999998 -227.43601 67.42292999999998 -224.04701 z M 251.52993 -185.47401 C 249.35793 -180.73601 242.59693000000001 -176.68201 239.27093000000002 -176.82701 C 243.11393 -182.78201 246.15693000000002 -189.56001 246.07393000000002 -196.64701 C 245.98993000000002 -203.73301 242.15993000000003 -211.10300999999998 235.57193 -213.71600999999998 C 227.94093 -216.74300999999997 218.83393 -212.44301 214.33393 -205.57700999999997 C 209.83393 -198.71101 210.57893 -190.59801 211.37093000000002 -182.42800999999997 C 206.24393 -185.46200999999996 201.84193000000002 -190.92700999999997 201.11293 -196.83900999999997 C 195.66593 -199.23800999999997 188.76093 -197.77300999999997 184.75893000000002 -193.36800999999997 C 180.75593000000003 -188.96300999999997 179.95693000000003 -181.95000999999996 182.86593000000002 -176.75800999999996 C 185.77493 -171.56600999999995 191.65493 -168.30800999999997 198.07593000000003 -168.37300999999997 C 194.09793000000002 -160.60600999999997 193.73393000000002 -149.75200999999996 199.61093000000002 -143.30100999999996 C 202.86893000000003 -139.72500999999997 208.80693000000002 -136.37200999999996 214.26493000000002 -137.32400999999996 C 219.03093 -138.15600999999995 223.37093000000002 -142.73900999999995 223.99893000000003 -147.53500999999997 C 222.47493000000003 -152.50200999999998 223.22293000000002 -157.73400999999998 224.53493000000003 -160.93100999999996 C 225.58193000000003 -150.74500999999995 234.74093000000002 -142.68600999999995 244.88993000000002 -141.32900999999995 C 257.11093 -139.69500999999997 265.20393 -148.06900999999996 266.32193 -158.67600999999996 C 267.39593 -168.86100999999996 260.96693 -181.50000999999997 251.52993 -185.47400999999996 z M 256.52893 -18.70601 C 258.28593 -23.95401 258.39193 -29.89401 256.02793 -34.89801 C 253.66393000000002 -39.90101 248.60693000000003 -43.74501 243.07493000000002 -43.90301 C 237.43593 -44.06401 231.47493000000003 -40.44201 229.76593000000003 -35.00701 C 228.92293000000004 -32.32501 229.76693000000003 -27.153010000000002 232.27793000000003 -23.05601 C 235.54293 -21.89101 240.87293000000003 -19.75701 242.76593000000003 -15.78801 C 237.02093000000002 -18.72901 231.81593000000004 -19.89901 225.27093000000002 -18.589010000000002 C 219.42393 -17.41901 213.22793000000001 -13.87601 210.70393 -6.914010000000001 C 208.67093000000003 -1.3090100000000007 210.89793 6.396989999999999 215.23993000000002 10.482989999999997 C 219.14793 14.160989999999998 225.39793 14.716989999999997 230.28293000000002 12.494989999999998 C 235.16893000000002 10.273989999999998 238.70093000000003 5.651989999999998 240.42393 0.5689899999999977 C 241.30693000000002 1.4589899999999978 242.19493 5.752989999999998 241.12893000000003 9.229989999999997 C 246.34193000000002 12.070989999999998 254.70093000000003 13.479989999999997 261.23393000000004 10.359989999999996 C 268.07093000000003 7.093989999999996 270.87493000000006 0.6779899999999959 270.67593000000005 -5.366010000000005 C 270.34693000000004 -15.375010000000005 263.24593000000004 -17.881010000000003 256.52893000000006 -18.706010000000006 z M 32.82793 194.09599 C 30.30393 199.97199 23.81593 205.06299 17.582930000000005 206.49199 C 24.478930000000005 201.97399 30.153930000000003 191.49598999999998 29.359930000000006 183.29099 C 28.565930000000005 175.08699 22.553930000000005 168.34899 15.306930000000005 164.41998999999998 C 10.231930000000006 161.66798999999997 3.993930000000004 161.80698999999998 -0.7180699999999938 164.85699 C -5.133069999999994 167.71299 -7.622069999999994 173.77399 -8.399069999999995 178.97499 C -9.175069999999995 184.17399 -8.037069999999995 189.48998999999998 -6.275069999999994 194.44398999999999 C -12.829069999999994 197.30799 -16.287069999999993 204.90499 -15.272069999999994 211.98498999999998 C -14.091069999999995 220.22298999999998 -5.016069999999994 226.65098999999998 3.918930000000005 228.54198999999997 C 14.168930000000005 230.71098999999998 21.512930000000004 227.71798999999996 25.764930000000007 221.00698999999997 C 31.057930000000006 225.80598999999998 39.77093000000001 226.26698999999996 45.54093 222.05398999999997 C 51.31093 217.84098999999998 53.52693 209.40298999999996 50.56893 202.89898999999997 C 47.61293 196.39398999999997 39.79593 192.51598999999996 32.82793 194.09598999999997 z M 224.56693 115.98799 C 218.32793 119.29499 214.16893000000002 127.22798999999999 214.42093 134.36499 C 225.35393 135.46599 231.90493 142.47099 236.88193 152.40899000000002 C 232.99893 148.16099000000003 227.78993 145.26099000000002 222.22893000000002 143.92699000000002 C 216.66693 142.59399000000002 210.31793000000002 142.93899000000002 205.53593 146.11299000000002 C 201.75193000000002 148.62399000000002 198.32293 154.22499000000002 196.94693 158.59399000000002 C 194.67793 165.79699000000002 195.60393000000002 174.05899000000002 199.77093000000002 180.32799000000003 C 203.93793000000002 186.59699000000003 211.36593000000002 190.61299000000002 218.80793000000003 190.20299000000003 C 226.24893000000003 189.79399000000004 233.35993000000002 184.77599000000004 235.95693000000003 177.68799 C 237.32393000000002 184.62999000000002 234.40693000000002 192.45099000000002 229.22893000000002 197.19599000000002 C 229.09393000000003 206.34699000000003 236.23393000000002 216.08899000000002 244.65093000000002 218.14499000000004 C 253.06793000000002 220.20099000000005 262.29693000000003 216.34399000000005 267.77793 209.54399000000004 C 274.30493 201.44799000000003 275.63493000000005 189.40599000000003 271.03693000000004 180.04399000000004 C 277.46293000000003 183.17599000000004 284.88293000000004 179.73099000000005 288.63393 173.57999000000004 C 292.38493 167.42899000000003 291.72593 159.10699000000002 287.86093 153.02999000000003 C 281.11393 142.41899000000004 263.63193 134.79799000000003 251.60493 138.50499000000002 C 252.92293 136.54999 255.29493 136.27699 258.17293 134.50099000000003 C 256.74793 130.37399000000002 254.44693 125.61999000000003 251.43693000000002 121.81599000000003 C 248.36893 118.77399000000003 245.01193 116.27799000000003 241.24793000000003 114.65499000000003 C 235.75593000000003 112.96099000000002 229.64293000000004 113.29799000000003 224.56693 115.98799000000002 z M -207.04607 -235.04101 C -201.36106999999998 -241.21201 -202.08907 -250.80001 -207.01107 -257.18301 C -211.93206999999998 -263.56601 -220.78007 -265.72201 -228.53206999999998 -263.47301000000004 C -242.06506999999996 -259.54501000000005 -256.60607 -242.44301000000004 -257.36506999999995 -227.55701000000005 C -258.88106999999997 -229.72801000000004 -258.2580699999999 -232.50501000000006 -258.99506999999994 -236.37701000000004 C -266.84506999999996 -236.09701000000004 -277.31706999999994 -233.77201000000005 -283.0270699999999 -227.78001000000003 C -288.7370699999999 -221.78701000000004 -291.9720699999999 -213.05001000000004 -290.93706999999995 -204.84501000000003 C -289.9020699999999 -196.64001000000002 -283.29306999999994 -189.17501000000004 -275.8250699999999 -186.97201000000004 C -270.5180699999999 -198.94601000000003 -260.78306999999995 -203.91001000000003 -248.62006999999994 -206.07101000000003 C -254.49006999999995 -203.16201000000004 -259.4720699999999 -198.28601000000003 -262.97106999999994 -192.46501000000004 C -266.47006999999996 -186.64401000000004 -268.53506999999996 -179.34701000000004 -267.08106999999995 -172.83501000000004 C -265.93006999999994 -167.68301000000005 -261.45306999999997 -161.85601000000003 -257.46506999999997 -158.77601000000004 C -250.89106999999996 -153.70101000000005 -242.00306999999998 -151.86801000000006 -233.93806999999998 -154.39201000000003 C -225.87306999999998 -156.91601000000003 -218.89307 -163.91201000000004 -216.47706999999997 -172.46601000000004 C -214.06106999999997 -181.02101000000005 -216.53206999999998 -190.80601000000004 -222.86206999999996 -196.21201000000005 C -215.17006999999995 -195.33801000000005 -208.20506999999995 -189.31501000000006 -205.27906999999996 -181.80801000000005 C -195.87806999999995 -178.46601000000004 -183.09206999999995 -183.14101000000005 -177.75806999999998 -191.93701000000004 C -172.42406999999997 -200.73401000000004 -172.88806999999997 -212.50901000000005 -177.82007 -221.07401000000004 C -183.69107 -231.27401000000003 -195.62206999999998 -236.97501000000005 -207.04607 -235.04101000000006 z M -194.09507 33.44399 C -204.52307 31.48199 -208.74806999999998 38.24999 -211.14507 45.00899 C -216.16907 41.984989999999996 -222.28907 40.50899 -228.00707 41.80399 C -233.72507 43.09899 -238.86407 47.44499 -240.30007 53.12999 C -241.76307 58.92499 -239.38807 65.92299 -234.15807 68.94099 C -231.57807 70.42899 -226.03407 70.74599 -221.22007000000002 69.09099 C -219.26407000000003 65.98199000000001 -215.83007000000003 60.959990000000005 -211.29107000000002 59.913990000000005 C -215.65407000000002 65.17899 -218.06107000000003 70.29399000000001 -218.21107 77.36399 C -218.34507 83.67999 -216.10507 90.90399 -209.48507 95.11599 C -204.15507 98.50899 -195.67207000000002 97.97599 -190.44807 94.42499 C -185.74507 91.22999 -183.73307 84.89198999999999 -184.90807 79.32898999999999 C -186.08307000000002 73.76498999999998 -190.05107 69.04999 -194.91107 66.09898999999999 C -193.78707 65.38998999999998 -189.14207 65.45798999999998 -185.79107 67.36098999999999 C -181.65407 62.62298999999999 -178.27407 54.29998999999999 -179.99907 46.82698999999999 C -181.80606999999998 39.00398999999999 -187.79807 34.62898999999999 -194.09507 33.443989999999985 z M -168.91707 216.69799 C -174.53906999999998 218.42399 -180.46107 217.57799 -184.08106999999998 216.09099 C -172.55106999999998 214.90599 -163.43006999999997 204.53899 -161.89307 193.04999 C -160.04307 179.21699 -169.52206999999999 170.05499 -181.52907 168.79099000000002 C -193.05606999999998 167.57699000000002 -207.36307 174.85399 -211.86106999999998 185.53699000000003 C -206.49806999999998 187.99399000000003 -201.90906999999999 195.64699000000002 -202.07207 199.41199000000003 C -208.81306999999998 195.06299000000004 -216.48606999999998 191.61799000000002 -224.50707 191.71299000000002 C -232.52807 191.80699 -240.87007 196.14399000000003 -243.82907 203.59999000000002 C -247.25607 212.23899000000003 -242.38807 222.54699000000002 -234.61607 227.64099000000002 C -226.84407000000002 232.73499 -217.66207 231.89099000000002 -208.41207 230.99499000000003 C -211.84607 236.79799000000003 -218.03207 241.78099000000003 -224.72407 242.60699000000002 C -227.44007000000002 248.77199000000002 -225.78207 256.58699 -220.79607000000001 261.11799 C -215.81007000000002 265.64899 -207.87107 266.55299 -201.99407000000002 263.26099 C -196.11707 259.96799 -192.42907000000002 253.31099 -192.50307000000004 246.04299 C -183.71107000000003 250.54599000000002 -171.42507000000003 250.95799 -164.12207000000004 244.30599 C -160.07407000000003 240.61799000000002 -156.27907000000005 233.89599 -157.35707000000005 227.71799000000001 C -158.30007000000006 222.32199000000003 -163.48707000000005 217.40899000000002 -168.91707000000005 216.69799 z M 15.47193 -146.94401 C 15.47193 -146.94401 15.45593 -146.95801 15.45193 -146.96101 C 15.457930000000001 -146.94901 15.46293 -146.93701 15.46793 -146.92501 z M -16.45607 94.53399 C -15.24107 94.66399 -14.237070000000001 95.13899 -13.55407 96.08599000000001 C -14.16207 95.02899000000001 -14.747069999999999 93.96199000000001 -15.29407 92.87699 C -15.67307 93.43599 -16.06007 93.98699 -16.45607 94.53399 z M -10.61207 84.41799 C -1.1710699999999985 101.96299 17.862930000000002 114.20299 37.67693 116.29899 C 57.49093 118.39599 78.11493 110.14799000000001 91.01893 94.96699000000001 C 102.30793 81.68699000000001 107.40793 63.43099000000001 104.98593 46.20199000000001 C 98.14493 57.77799000000001 85.73093 66.02099000000001 72.32992999999999 67.49199000000002 C 84.60793 61.28999000000002 94.54692999999999 50.58299000000002 99.81992999999999 37.87799000000001 C 105.09192999999999 25.172990000000013 105.65592999999998 10.573990000000013 101.37892999999998 -2.4990099999999913 C 110.20392999999999 8.53499000000001 112.97792999999999 24.04499000000001 108.81592999999998 37.51499000000001 C 126.75792999999999 31.814990000000012 142.35192999999998 15.653990000000011 149.81293 -1.4820099999999883 C 158.00493 -20.29600999999999 154.95892999999998 -43.925009999999986 141.04292999999998 -59.00700999999999 C 127.12892999999998 -74.08900999999999 102.66393 -78.81600999999999 84.83192999999999 -68.66200999999998 C 92.31092999999998 -76.56500999999999 99.30492999999998 -82.05300999999999 110.14092999999998 -83.03400999999998 C 113.36892999999998 -100.34200999999999 107.48892999999998 -120.52100999999999 94.53192999999999 -132.44000999999997 C 81.57392999999999 -144.35900999999998 62.340929999999986 -149.02300999999997 45.36192999999999 -144.36500999999998 C 28.383929999999985 -139.70601 14.224929999999986 -125.87900999999998 9.164929999999984 -109.01500999999999 C 9.165929999999983 -114.39401 9.408929999999984 -121.22400999999999 8.404929999999984 -126.50900999999999 C 4.031929999999984 -149.54701 -13.141070000000015 -169.90600999999998 -35.372070000000015 -177.36500999999998 C -57.60307000000002 -184.82401 -83.99907000000002 -178.68301 -100.10907 -161.64400999999998 C -116.21907 -144.60501 -120.76707 -116.11000999999999 -110.41207 -95.07000999999998 C -103.38507 -94.70000999999998 -97.83707 -93.03600999999998 -93.58107 -90.19200999999998 C -110.75607 -90.53300999999998 -128.87306999999998 -80.13400999999999 -140.73907 -67.71300999999998 C -152.60607 -55.291009999999986 -158.44707 -37.08200999999998 -155.01606999999998 -20.249009999999984 C -151.58407 -3.416009999999986 -138.57406999999998 11.357990000000015 -122.02006999999998 15.949990000000014 C -117.43706999999998 10.720990000000015 -111.58206999999997 7.502990000000015 -104.96406999999998 5.958990000000014 C -108.82606999999997 -10.421009999999985 -102.42806999999998 -28.782009999999985 -89.20006999999998 -39.19200999999999 C -97.78606999999998 -26.662009999999988 -100.76606999999998 -10.43700999999999 -97.19306999999998 4.326990000000009 C -93.62006999999998 19.09099000000001 -83.54906999999997 32.15699000000001 -70.18306999999997 39.37199000000001 C -86.17306999999997 36.26799000000001 -99.88006999999998 23.61699000000001 -104.42606999999998 8.003990000000012 C -120.61106999999998 22.753990000000012 -125.02206999999999 49.00299000000001 -117.62206999999998 69.81199000000001 C -109.73606999999998 91.98799000000001 -86.43306999999999 107.66599000000001 -62.92006999999998 106.61599000000001 C -39.407069999999976 105.56499000000001 -17.59506999999998 87.87099 -11.718069999999983 65.07999000000001 C -9.070069999999983 71.80999000000001 -8.681069999999984 77.44499 -10.612069999999983 84.41799 z M -13.08807 96.89999 C -12.91607 97.29999000000001 -12.65507 97.72299 -12.31007 98.16599000000001 C -12.57607 97.74099000000001 -12.84107 97.31499000000001 -13.09607 96.88599 C -13.093069999999999 96.88999000000001 -13.090069999999999 96.89499 -13.08807 96.89999 z" stroke-linecap="round" />
</g>
</g>
</g>
</svg>